<svg xmlns="http://www.w3.org/2000/svg" width="240" height="80" fill="none" viewBox="0 0 1249 324">
  <path fill="#4540DB" fill-rule="evenodd" d="M550.914 58.44 427.868 176.96l89.487 86.197-60.405 60.337-91.726-88.353-60.405 60.337V58.441l60.405 58.184L488.27.256l62.64 58.185.004-.002Z" clip-rule="evenodd"/>
  <path fill="#000" fill-rule="evenodd" d="M85.576 213.595h116.331v-112.06l87.252-84.043v277.993H.556l85.02-81.89Z" clip-rule="evenodd"/>
  <path fill="#4540DB" d="M591.881 121.069V220.6h-12.989v-99.531h12.989Zm31.992 0v10.801h-76.904v-10.801h76.904Zm48.672 86.885v-38.077c0-2.916-.593-5.446-1.778-7.588-1.139-2.187-2.871-3.873-5.195-5.058-2.324-1.185-5.195-1.777-8.613-1.777-3.19 0-5.993.546-8.408 1.64-2.37 1.094-4.239 2.529-5.606 4.307-1.322 1.777-1.982 3.691-1.982 5.742h-12.647c0-2.643.684-5.264 2.051-7.861 1.367-2.598 3.327-4.945 5.879-7.041 2.598-2.142 5.696-3.828 9.297-5.059 3.646-1.276 7.702-1.914 12.168-1.914 5.377 0 10.117.911 14.218 2.734 4.148 1.823 7.383 4.58 9.707 8.272 2.37 3.646 3.555 8.226 3.555 13.74v34.453c0 2.461.205 5.082.615 7.862.456 2.779 1.117 5.172 1.983 7.177v1.094h-13.194c-.638-1.458-1.139-3.395-1.503-5.811-.365-2.46-.547-4.739-.547-6.835Zm2.187-32.198.137 8.887h-12.783c-3.601 0-6.813.296-9.639.889-2.825.547-5.195 1.39-7.109 2.529-1.914 1.139-3.373 2.575-4.375 4.307-1.003 1.686-1.504 3.668-1.504 5.947 0 2.324.524 4.443 1.572 6.357 1.048 1.914 2.62 3.441 4.717 4.58 2.142 1.094 4.762 1.641 7.861 1.641 3.874 0 7.292-.82 10.254-2.461 2.962-1.641 5.309-3.646 7.041-6.016 1.777-2.369 2.734-4.671 2.871-6.904l5.401 6.084c-.319 1.914-1.185 4.033-2.598 6.358-1.413 2.324-3.304 4.557-5.674 6.699-2.324 2.096-5.104 3.851-8.34 5.263-3.19 1.368-6.79 2.051-10.801 2.051-5.013 0-9.41-.98-13.193-2.939-3.737-1.96-6.654-4.58-8.75-7.862-2.051-3.326-3.076-7.041-3.076-11.142 0-3.965.775-7.451 2.324-10.459 1.55-3.054 3.783-5.583 6.699-7.588 2.917-2.051 6.426-3.6 10.528-4.648 4.101-1.049 8.681-1.573 13.74-1.573h14.697Zm44.092-60.156v105h-12.715v-105h12.715Zm50.996 106.367c-5.15 0-9.821-.866-14.014-2.597-4.147-1.778-7.724-4.262-10.732-7.452-2.962-3.19-5.241-6.972-6.836-11.347-1.595-4.375-2.393-9.16-2.393-14.356v-2.871c0-6.015.889-11.37 2.666-16.064 1.778-4.74 4.193-8.75 7.247-12.032 3.053-3.281 6.516-5.765 10.39-7.451 3.874-1.686 7.884-2.529 12.031-2.529 5.287 0 9.844.911 13.672 2.734 3.874 1.823 7.041 4.375 9.502 7.657 2.461 3.235 4.284 7.063 5.469 11.484 1.185 4.375 1.777 9.16 1.777 14.355v5.674h-55.234V176.85h42.588v-.957a31.53 31.53 0 0 0-2.051-9.57c-1.139-3.099-2.962-5.651-5.469-7.657-2.506-2.005-5.924-3.007-10.254-3.007-2.871 0-5.514.615-7.929 1.845-2.416 1.185-4.489 2.963-6.221 5.332-1.732 2.37-3.076 5.264-4.033 8.682-.957 3.418-1.436 7.36-1.436 11.826v2.871c0 3.509.479 6.813 1.436 9.912 1.002 3.054 2.438 5.743 4.306 8.067a20.666 20.666 0 0 0 6.905 5.469c2.734 1.321 5.833 1.982 9.297 1.982 4.466 0 8.248-.912 11.347-2.734 3.099-1.823 5.811-4.262 8.135-7.315l7.656 6.084c-1.595 2.415-3.623 4.717-6.084 6.904-2.461 2.188-5.491 3.965-9.091 5.332-3.555 1.368-7.771 2.051-12.647 2.051Zm56.191-59.541V220.6h-12.646v-73.965h11.963l.683 15.791Zm-3.007 18.389-5.264-.205c.046-5.059.798-9.73 2.256-14.014 1.458-4.329 3.509-8.089 6.152-11.279 2.643-3.19 5.788-5.651 9.434-7.383 3.691-1.777 7.77-2.666 12.236-2.666 3.646 0 6.927.501 9.844 1.504 2.917.957 5.4 2.506 7.451 4.648 2.096 2.142 3.691 4.922 4.785 8.34 1.094 3.373 1.641 7.497 1.641 12.373V220.6h-12.715v-48.604c0-3.873-.57-6.972-1.709-9.296-1.139-2.37-2.803-4.079-4.99-5.127-2.188-1.094-4.877-1.641-8.067-1.641-3.144 0-6.015.661-8.613 1.982-2.552 1.322-4.762 3.145-6.631 5.469-1.823 2.324-3.258 4.99-4.306 7.998-1.003 2.962-1.504 6.107-1.504 9.434Zm98.711-34.18v9.707h-39.991v-9.707h39.991Zm-26.455-17.978h12.646v73.623c0 2.506.387 4.397 1.162 5.674.775 1.276 1.777 2.119 3.008 2.529 1.23.41 2.552.615 3.965.615 1.048 0 2.142-.091 3.281-.273a82.636 82.636 0 0 0 2.666-.547l.068 10.322c-1.002.319-2.324.615-3.964.889-1.595.319-3.532.478-5.811.478-3.099 0-5.947-.615-8.545-1.846-2.598-1.23-4.671-3.281-6.221-6.152-1.504-2.917-2.255-6.836-2.255-11.758v-73.554Z"/>
  <path fill="#000" d="m970.592 205.493 29.326-84.424h14.282L977.359 220.6h-10.185l3.418-15.107Zm-27.413-84.424 29.053 84.424 3.623 15.107H965.67l-36.778-99.531h14.287Zm122.981 86.885v-38.077c0-2.916-.59-5.446-1.78-7.588-1.14-2.187-2.87-3.873-5.19-5.058-2.33-1.185-5.2-1.777-8.62-1.777-3.19 0-5.99.546-8.41 1.64-2.37 1.094-4.23 2.529-5.6 4.307-1.32 1.777-1.98 3.691-1.98 5.742h-12.65c0-2.643.68-5.264 2.05-7.861 1.37-2.598 3.33-4.945 5.88-7.041 2.6-2.142 5.7-3.828 9.3-5.059 3.64-1.276 7.7-1.914 12.16-1.914 5.38 0 10.12.911 14.22 2.734 4.15 1.823 7.39 4.58 9.71 8.272 2.37 3.646 3.55 8.226 3.55 13.74v34.453c0 2.461.21 5.082.62 7.862.46 2.779 1.12 5.172 1.98 7.177v1.094h-13.19c-.64-1.458-1.14-3.395-1.51-5.811-.36-2.46-.54-4.739-.54-6.835Zm2.19-32.198.13 8.887h-12.78c-3.6 0-6.81.296-9.64.889-2.83.547-5.2 1.39-7.11 2.529-1.91 1.139-3.37 2.575-4.37 4.307-1.01 1.686-1.51 3.668-1.51 5.947 0 2.324.53 4.443 1.57 6.357 1.05 1.914 2.62 3.441 4.72 4.58 2.14 1.094 4.76 1.641 7.86 1.641 3.88 0 7.29-.82 10.26-2.461 2.96-1.641 5.31-3.646 7.04-6.016 1.77-2.369 2.73-4.671 2.87-6.904l5.4 6.084c-.32 1.914-1.19 4.033-2.6 6.358-1.41 2.324-3.3 4.557-5.67 6.699-2.33 2.096-5.11 3.851-8.34 5.263-3.19 1.368-6.79 2.051-10.8 2.051-5.02 0-9.41-.98-13.2-2.939-3.73-1.96-6.65-4.58-8.75-7.862-2.05-3.326-3.07-7.041-3.07-11.142 0-3.965.77-7.451 2.32-10.459 1.55-3.054 3.78-5.583 6.7-7.588 2.92-2.051 6.43-3.6 10.53-4.648 4.1-1.049 8.68-1.573 13.74-1.573h14.7Zm75.6 27.754v-56.875h12.72V220.6h-12.1l-.62-17.09Zm2.39-15.586 5.27-.136c0 4.921-.53 9.479-1.58 13.671-1 4.148-2.64 7.748-4.92 10.801-2.28 3.054-5.26 5.446-8.95 7.178-3.69 1.686-8.18 2.529-13.47 2.529-3.6 0-6.9-.524-9.91-1.572-2.96-1.048-5.52-2.666-7.66-4.854-2.14-2.187-3.8-5.035-4.99-8.545-1.14-3.509-1.71-7.724-1.71-12.646v-47.715h12.65v47.852c0 3.327.36 6.084 1.09 8.271.78 2.142 1.8 3.851 3.08 5.127 1.32 1.231 2.78 2.097 4.37 2.598 1.65.501 3.33.752 5.06.752 5.38 0 9.64-1.026 12.79-3.076 3.14-2.097 5.4-4.899 6.76-8.409 1.42-3.554 2.12-7.496 2.12-11.826Zm43.34-72.324v105h-12.71v-105h12.71Zm51.27 31.035v9.707h-39.99v-9.707h39.99Zm-26.45-17.978h12.64v73.623c0 2.506.39 4.397 1.17 5.674.77 1.276 1.77 2.119 3 2.529 1.23.41 2.56.615 3.97.615 1.05 0 2.14-.091 3.28-.273 1.19-.228 2.07-.411 2.67-.547l.06 10.322c-1 .319-2.32.615-3.96.889-1.6.319-3.53.478-5.81.478-3.1 0-5.95-.615-8.55-1.846-2.59-1.23-4.67-3.281-6.22-6.152-1.5-2.917-2.25-6.836-2.25-11.758v-73.554Z"/>
</svg>