<svg xmlns="http://www.w3.org/2000/svg" width="2484" height="883" fill="none" viewBox="0 0 2484 883">
  <path fill="#204283" d="m12.72 361.092-9.236-27.298c.276-.096 30.047-10.402 61.138-34.635 40.7-31.724 64.511-71.299 70.772-117.631 6.49-48.034 27.735-90.688 61.436-123.35C228.075 27.897 268.814 7.936 311.542 1.97c41.761-5.828 82.832 1.652 118.764 21.636 39.191 21.796 70.765 58.13 91.307 105.075 33.156 75.773 88.465 123.41 164.389 141.586 57.543 13.776 106.116 4.698 106.602 4.605l5.536 28.281c-2.189.427-54.29 10.324-117.715-4.59-37.483-8.814-71.17-24.497-100.124-46.613-36.123-27.59-64.766-65.183-85.135-111.733C460.361 60.681 393.222 19.662 315.538 30.51 249.274 39.76 184.221 87.38 171.5 181.528c-7.244 53.622-43.255 104.892-89.937 140.98-34.858 26.948-67.471 38.122-68.842 38.584Z"/>
  <path stroke="#2861A4" stroke-linecap="round" stroke-linejoin="round" stroke-width="2.385" d="M783.036 283.23s-201.251 33.798-280.204-160.875-310.63-73.852-356.764 38.923C99.934 274.051 1.339 319.976 1.339 319.976"/>
  <path fill="#204283" d="M1931.6 720.827c-27.37 0-45.84-1.28-48.3-1.461l2.57-34.985c1.85.137 174.8 12.012 267.08-40.457a221.456 221.456 0 0 1-31.42-27.957c-32.23-34.804-45.88-72.4-36.52-100.57 8.19-24.633 25.79-38.787 48.3-38.833h.1c34.72 0 74.86 35.364 89.52 78.896 10.2 30.268 6.59 59.057-9.64 82.465 25.54 10.411 54.45 14.871 83.91 7.618 66.76-16.432 119.28-89.129 151.89-210.232l33.93 9.107c-19.01 70.598-44.84 126.639-76.78 166.571-28.98 36.224-62.83 59.31-100.63 68.614-33.27 8.19-69.27 5.22-104.1-8.597a204.21 204.21 0 0 1-15.16-6.744c-69.58 49.026-188.35 56.565-254.75 56.565Zm201.82-209.183h-.04c-3.02.005-10.11.019-15.02 14.799-4.19 12.611 3.15 37.821 28.97 65.713a190.215 190.215 0 0 0 34.56 29.135c14.92-18.591 12.9-39.321 7.74-54.649-10.44-30.994-38.77-54.998-56.21-54.998Z"/>
  <path stroke="#2861A4" stroke-linecap="round" stroke-linejoin="round" stroke-width="1.987" d="M2203.06 629.196c48.76-69.579-67.26-177.307-92.2-102.229-27.21 81.88 244.36 303.161 346.77-77.141"/>
  <path fill="#A5C5E8" d="M1920.71 857.491c0 3.341-.66 6.649-1.94 9.735a25.513 25.513 0 0 1-5.52 8.252 25.5 25.5 0 0 1-18.02 7.451H858.453a25.498 25.498 0 0 1-18.016-7.451 25.415 25.415 0 0 1-7.462-17.987 25.417 25.417 0 0 1 7.462-17.987 25.473 25.473 0 0 1 8.266-5.515 25.518 25.518 0 0 1 9.75-1.936H1895.23c3.35 0 6.66.658 9.75 1.936a25.55 25.55 0 0 1 8.27 5.514 25.528 25.528 0 0 1 5.52 8.253 25.418 25.418 0 0 1 1.94 9.735Z"/>
  <path fill="#5786C5" d="m1305.03 196.262 48.46-11.983s11.11 7.972 1.58 19.81c-.55.686-50.04-7.827-50.04-7.827Z"/>
  <path stroke="#4540DB" stroke-miterlimit="10" stroke-width="1.192" d="m1305.03 196.262 48.46-11.983s11.11 7.972 1.58 19.81c-.55.686-50.04-7.827-50.04-7.827Z"/>
  <path fill="#5786C5" d="m1299 169.327 32.02-38.236s13.69-.117 13 15.053c-.05.879-45.02 23.183-45.02 23.183Z"/>
  <path stroke="#4540DB" stroke-miterlimit="10" stroke-width="1.192" d="m1299 169.327 32.02-38.236s13.69-.117 13 15.053c-.05.879-45.02 23.183-45.02 23.183Z"/>
  <path fill="#5786C5" d="m1279.37 171.691-14.63-47.653s7.37-11.512 19.73-2.661c.71.514-5.1 50.314-5.1 50.314Z"/>
  <path stroke="#4540DB" stroke-miterlimit="10" stroke-width="1.192" d="m1279.37 171.691-14.63-47.653s7.37-11.512 19.73-2.661c.71.514-5.1 50.314-5.1 50.314Z"/>
  <path fill="#5786C5" d="m1370.93 809.925-43.79 3.423s-8.49-8.517 1.49-17.419c.57-.515 42.3 13.996 42.3 13.996Z"/>
  <path stroke="#4540DB" stroke-miterlimit="10" stroke-width="1.192" d="m1370.93 809.925-43.79 3.423s-8.49-8.517 1.49-17.419c.57-.515 42.3 13.996 42.3 13.996Z"/>
  <path fill="#5786C5" d="m1372.27 834.17-33.31 28.577s-11.9-1.868-9.11-14.937c.16-.756 42.42-13.64 42.42-13.64Z"/>
  <path stroke="#4540DB" stroke-miterlimit="10" stroke-width="1.192" d="m1372.27 834.17-33.31 28.577s-11.9-1.868-9.11-14.937c.16-.756 42.42-13.64 42.42-13.64Z"/>
  <path fill="#5786C5" d="m1389.65 834.944 5.81 43.465s-8.05 8.931-17.5-.531c-.55-.549 11.69-42.934 11.69-42.934Z"/>
  <path stroke="#4540DB" stroke-miterlimit="10" stroke-width="1.192" d="m1389.65 834.944 5.81 43.465s-8.05 8.931-17.5-.531c-.55-.549 11.69-42.934 11.69-42.934Z"/>
  <path fill="#A5C5E8" d="M1174.16 608.007h-6.58l-2.74 16.725h-8.13l2.74-16.725h-9.07v-7.465h10.3l1.79-10.77h-9.03v-7.465h10.26l2.82-16.971h8.09l-2.78 16.971h6.58l2.82-16.971h8.13l-2.82 16.971h9.44v7.465h-10.67l-1.79 10.77h9.35v7.465h-10.58l-2.74 16.725h-8.13l2.74-16.725Zm-5.35-7.465h6.58l1.79-10.77h-6.58l-1.79 10.77Zm-131.36 244.553a13.17 13.17 0 0 1-9.16-3.854 13.123 13.123 0 0 1-3.86-9.152v-49.132H872.459a13.185 13.185 0 0 1-9.166-3.852 13.148 13.148 0 0 1-3.859-9.151v-51.059c0-8.347 2.091-15.251 6.272-20.712l144.244-181.592c2.9-3.53 5.55-5.858 7.97-6.985 2.41-1.12 5.7-1.682 9.89-1.686h72.84a13.168 13.168 0 0 1 13.03 13.006v184.963h41.49c3.44.041 6.73 1.425 9.17 3.855a13.21 13.21 0 0 1 3.86 9.151v51.059a13.166 13.166 0 0 1-3.86 9.151 13.21 13.21 0 0 1-9.17 3.852h-41.49v49.132a13.168 13.168 0 0 1-13.03 13.006h-63.2Zm-10.61-139.206v-88.627l-70.436 88.627h70.436Zm378.6-349.537c24.12 0 44.87 3.532 62.23 10.597 17.37 7.068 31.77 16.541 43.18 28.419a114.611 114.611 0 0 1 25.57 41.665 178.374 178.374 0 0 1 9.89 49.853c.64 13.811.97 28.262.97 43.352 0 15.098-.32 29.227-.97 42.388a178.367 178.367 0 0 1-9.89 49.853 114.443 114.443 0 0 1-25.57 41.665c-11.42 11.885-25.81 21.358-43.18 28.419-17.36 7.06-38.11 10.592-62.23 10.596-24.12 0-44.87-3.532-62.23-10.596-17.37-7.059-31.76-16.532-43.18-28.419a114.393 114.393 0 0 1-25.57-41.665c-5.67-16.061-9-32.849-9.89-49.853-.65-13.164-.97-27.293-.97-42.388 0-15.09.32-29.541.97-43.352a177.642 177.642 0 0 1 9.89-49.853 114.418 114.418 0 0 1 25.57-41.665c11.41-11.876 25.8-21.349 43.18-28.419 17.36-7.06 38.11-10.592 62.23-10.597Zm51.62 213.865c1.28-27.29 1.28-54.263 0-80.921a128.806 128.806 0 0 0-3.62-22.158 48.35 48.35 0 0 0-8.44-17.581 39.687 39.687 0 0 0-15.44-11.801c-6.43-2.891-14.47-4.336-24.12-4.335-9.65 0-17.69 1.445-24.12 4.335a39.659 39.659 0 0 0-15.44 11.801 51.546 51.546 0 0 0-8.68 17.581 93.876 93.876 0 0 0-3.38 22.158 678.472 678.472 0 0 0 0 80.921c.24 7.477 1.29 14.906 3.13 22.157a46.315 46.315 0 0 0 8.69 17.582 41.604 41.604 0 0 0 15.68 11.802c6.43 2.889 14.47 4.333 24.12 4.333s17.69-1.444 24.12-4.333a41.733 41.733 0 0 0 15.68-11.802 46.351 46.351 0 0 0 8.69-17.582 104.25 104.25 0 0 0 3.13-22.157Zm323.48-99.339a13.216 13.216 0 0 1-9.17-3.854 13.164 13.164 0 0 1-3.86-9.151v-49.132h-151.97a13.168 13.168 0 0 1-9.16-3.852 13.123 13.123 0 0 1-3.86-9.152v-51.058c0-8.347 2.09-15.251 6.27-20.712l144.25-181.592c2.89-3.53 5.55-5.858 7.96-6.985 2.41-1.121 5.71-1.683 9.89-1.686h72.85a13.22 13.22 0 0 1 9.17 3.854 13.157 13.157 0 0 1 3.85 9.152v184.964h41.49a13.167 13.167 0 0 1 13.03 13.005v51.058a13.168 13.168 0 0 1-13.03 13.004h-41.49v49.132a13.159 13.159 0 0 1-3.85 9.152 13.215 13.215 0 0 1-9.17 3.853h-63.2Zm-10.62-139.204v-88.628l-70.43 88.628h70.43Z"/>
  <path stroke="#4540DB" stroke-linecap="round" stroke-linejoin="round" stroke-width="1.192" d="M1028.94 808.928a13.21 13.21 0 0 1-9.17-3.853 13.164 13.164 0 0 1-3.86-9.151v-49.132H863.945a13.186 13.186 0 0 1-9.166-3.853 13.148 13.148 0 0 1-3.859-9.152v-51.058c0-8.346 2.091-15.25 6.272-20.712l144.248-181.592c2.9-3.529 5.55-5.858 7.96-6.984 2.41-1.121 5.71-1.683 9.89-1.687h72.85c3.44.04 6.73 1.423 9.17 3.854a13.167 13.167 0 0 1 3.86 9.152v184.963h41.49c3.44.041 6.73 1.424 9.16 3.854a13.123 13.123 0 0 1 3.86 9.152v51.058a13.123 13.123 0 0 1-3.86 9.152 13.173 13.173 0 0 1-9.16 3.853h-41.49v49.132a13.168 13.168 0 0 1-3.86 9.152 13.21 13.21 0 0 1-9.17 3.852h-63.2Zm-10.61-139.205v-88.628l-70.44 88.628h70.44Zm344.45-295.831c24.12 0 44.86 3.532 62.23 10.597 17.37 7.068 31.76 16.541 43.18 28.419a114.743 114.743 0 0 1 25.57 41.666 178.367 178.367 0 0 1 9.89 49.853c.64 13.81.96 28.261.96 43.351 0 15.097-.32 29.227-.96 42.388a178.36 178.36 0 0 1-9.89 49.852 114.726 114.726 0 0 1-25.57 41.666c-11.42 11.884-25.81 21.357-43.18 28.419-17.37 7.06-38.11 10.592-62.23 10.597-24.13 0-44.87-3.532-62.24-10.597-17.37-7.059-31.76-16.532-43.18-28.419a114.532 114.532 0 0 1-25.57-41.666 178.346 178.346 0 0 1-9.89-49.852c-.64-13.164-.97-27.294-.96-42.388 0-15.09.32-29.541.96-43.351.9-17.004 4.23-33.792 9.89-49.853a114.685 114.685 0 0 1 25.57-41.666c11.42-11.877 25.81-21.35 43.18-28.419 17.37-7.06 38.11-10.592 62.24-10.597Zm51.62 213.864c1.28-27.289 1.28-54.263 0-80.921a128.81 128.81 0 0 0-3.62-22.157 48.52 48.52 0 0 0-8.44-17.581 39.757 39.757 0 0 0-15.44-11.8c-6.44-2.892-14.48-4.337-24.12-4.337-9.65 0-17.69 1.446-24.13 4.337a39.624 39.624 0 0 0-15.43 11.8 51.39 51.39 0 0 0-8.69 17.581 94.393 94.393 0 0 0-3.38 22.157 678.472 678.472 0 0 0 0 80.921 103.61 103.61 0 0 0 3.14 22.158 46.139 46.139 0 0 0 8.68 17.581 41.671 41.671 0 0 0 15.68 11.802c6.43 2.89 14.48 4.335 24.13 4.335 9.65 0 17.69-1.445 24.12-4.335a41.733 41.733 0 0 0 15.68-11.802 46.326 46.326 0 0 0 8.68-17.581 104.263 104.263 0 0 0 3.14-22.158v0Zm326.41-99.338a13.169 13.169 0 0 1-9.16-3.853 13.123 13.123 0 0 1-3.86-9.152v-49.132h-151.97a13.166 13.166 0 0 1-13.03-13.003v-51.059c0-8.346 2.09-15.251 6.28-20.713l144.24-181.591c2.9-3.53 5.55-5.858 7.97-6.985 2.41-1.12 5.7-1.682 9.89-1.686h72.84c3.45.041 6.74 1.424 9.17 3.854a13.167 13.167 0 0 1 3.86 9.152v184.963h41.49a13.22 13.22 0 0 1 9.17 3.854 13.212 13.212 0 0 1 3.86 9.152v51.059a13.166 13.166 0 0 1-3.86 9.151 13.214 13.214 0 0 1-9.17 3.852h-41.49v49.132a13.168 13.168 0 0 1-13.03 13.005h-63.2Zm-10.61-139.205v-88.628l-70.44 88.628h70.44ZM860.939 829.962H1877.35"/>
  <path fill="#fff" d="m1048.69 799.11-8.78 26.623-19.91-.543 6.57-22.165"/>
  <path stroke="#4540DB" stroke-linecap="round" stroke-linejoin="round" stroke-width="1.192" d="m1048.69 799.11-8.78 26.623-19.91-.543 6.57-22.165"/>
  <path fill="#fff" stroke="#4540DB" stroke-linecap="round" stroke-linejoin="round" stroke-width="1.192" d="m1123.82 396.551-12.1 1.008c2.94 24.675-7.56 42.902-21.32 55.929l13.34 20.964c23.94-31.605 20.08-77.901 20.08-77.901Z"/>
  <path fill="#A5C5E8" stroke="#4540DB" stroke-linecap="round" stroke-linejoin="round" stroke-width="1.192" d="m1040.66 481.162 11.19 21.451c24.81-2.754 41.15-13.979 51.89-28.161l-13.34-20.964c-21.05 19.92-49.74 27.674-49.74 27.674Z"/>
  <path fill="#4540DB" d="m1123.65 401.956-11.22-.193c-.47-.289-.9-.637-1.29-1.035-.59-.627.64-2.868.64-2.868s-4.15-6.487-5.1-12.026c-.94-5.537-5.34-10.982-2.69-11.054 2.65-.072 2.78 4.693 4.1 4.128.65-.282.87-4.644.12-8.897-.74-4.25-2.45-8.393-.58-8.045 3.73.693 5.75 14.322 5.75 14.322s.27-4.394.26-8.99c-.02-4.932-.26-10.089 2.08-10.056 2.02.028 1.99 4.562 2.53 9.077.39 2.971.95 5.917 1.67 8.825 0 0 1-14.906 2.63-13.362 1.64 1.544.46 14.795 1.41 14.79.95-.006 2.12-9.279 3.47-8.521 1.34.758-.08 16.693-.08 16.693s.51 9.343-3.09 13.679c0 0 1.61 2.856-.61 3.533Z"/>
  <path fill="#A5C5E8" stroke="#4540DB" stroke-linecap="round" stroke-linejoin="round" stroke-width="1.192" d="m1097.01 446.774-11.96 7.474 16.83 26.865 11.96-7.473-16.83-26.866Z"/>
  <path fill="#fff" stroke="#4540DB" stroke-linecap="round" stroke-linejoin="round" stroke-width="1.192" d="M941.927 290.981a26.839 26.839 0 0 1-7.878 18.991 26.927 26.927 0 0 1-19.021 7.868H787.594a26.922 26.922 0 0 1-19.022-7.867 26.84 26.84 0 0 1-7.881-18.992v0a26.843 26.843 0 0 1 7.88-18.993 26.93 26.93 0 0 1 19.023-7.868h127.434a26.928 26.928 0 0 1 19.021 7.869 26.84 26.84 0 0 1 7.878 18.992v0Z"/>
  <path fill="#A5C5E8" d="M906.86 296.446H791.521a24.373 24.373 0 0 1-15.147-5.287 24.3 24.3 0 0 1-8.562-13.55 24.288 24.288 0 0 0 9.417 32.676 24.374 24.374 0 0 0 12.019 3.171h115.34c3.666.01 7.287-.809 10.591-2.396a24.272 24.272 0 0 0 8.485-6.765 24.222 24.222 0 0 0 4.629-20.622 24.321 24.321 0 0 1-8.952 9.338 24.366 24.366 0 0 1-12.481 3.435Z"/>
  <path fill="#fff" stroke="#4540DB" stroke-linecap="round" stroke-linejoin="round" stroke-width="1.192" d="M998.566 300.873a50.104 50.104 0 0 1-3.823 19.207 50.195 50.195 0 0 1-10.896 16.284 50.28 50.28 0 0 1-16.309 10.879 50.324 50.324 0 0 1-19.237 3.819v0a50.32 50.32 0 0 1-35.546-14.698 50.176 50.176 0 0 1-10.895-16.284 50.105 50.105 0 0 1-3.824-19.207v-19.789a50.161 50.161 0 0 1 14.72-35.489 50.259 50.259 0 0 1 16.308-10.879 50.344 50.344 0 0 1 19.237-3.82v0a50.343 50.343 0 0 1 19.237 3.819 50.272 50.272 0 0 1 16.308 10.88 50.187 50.187 0 0 1 10.896 16.282 50.108 50.108 0 0 1 3.824 19.207v19.789Z"/>
  <path fill="#A5C5E8" d="M963.359 324.125a44.545 44.545 0 0 1-31.469-13.012 44.424 44.424 0 0 1-9.646-14.415 44.362 44.362 0 0 1-3.385-17.004v-17.521a44.213 44.213 0 0 1 3.298-16.794 44.41 44.41 0 0 0-14.411 15.976 44.331 44.331 0 0 0-5.2 20.864v17.52a44.39 44.39 0 0 0 10.137 28.231 44.512 44.512 0 0 0 25.794 15.369 44.56 44.56 0 0 0 29.699-4.495 44.455 44.455 0 0 0 20.072-22.311 44.34 44.34 0 0 1-24.889 7.592Z"/>
  <path fill="#fff" stroke="#4540DB" stroke-linecap="round" stroke-linejoin="round" stroke-width="1.192" d="M1162.81 329.15a56.215 56.215 0 0 1-4.31 21.64 56.41 56.41 0 0 1-12.27 18.346 56.694 56.694 0 0 1-40.05 16.56h-100.53a56.716 56.716 0 0 1-21.679-4.303 56.651 56.651 0 0 1-18.375-12.258 56.546 56.546 0 0 1-12.277-18.345 56.46 56.46 0 0 1-4.31-21.64v-76.341a56.458 56.458 0 0 1 4.311-21.64 56.536 56.536 0 0 1 12.277-18.345 56.647 56.647 0 0 1 18.374-12.258 56.72 56.72 0 0 1 21.679-4.304h100.53a56.694 56.694 0 0 1 40.05 16.561 56.405 56.405 0 0 1 12.27 18.345 56.22 56.22 0 0 1 4.31 21.641v76.341Z"/>
  <path fill="#A5C5E8" d="M1125.22 352.287h-93.44c-6.91 0-13.76-1.359-20.15-4a52.702 52.702 0 0 1-17.074-11.393 52.496 52.496 0 0 1-15.418-37.166v-70.956a52.294 52.294 0 0 1 3.669-19.273 52.59 52.59 0 0 0-21.003 19.365 52.476 52.476 0 0 0-7.762 27.471v70.956a52.48 52.48 0 0 0 4.006 20.114 52.539 52.539 0 0 0 11.411 17.051 52.628 52.628 0 0 0 17.078 11.393 52.72 52.72 0 0 0 20.143 4h93.44c10.57 0 20.89-3.175 29.62-9.111a52.584 52.584 0 0 0 19.36-24.172 52.507 52.507 0 0 1-23.88 5.721Z"/>
  <path fill="#fff" stroke="#4540DB" stroke-linecap="round" stroke-linejoin="round" stroke-width="1.192" d="M1171.57 158.798a66.101 66.101 0 0 0-23.61 4.168c-.1-.002-.21-.013-.31-.013-4.61 0-9.03 2.86-13.11 8.086-3.65 3.414-6.06 7.363-6.84 11.613-10.63 22.92-17.69 63.596-17.69 109.964 0 71.611 16.85 129.662 37.64 129.662 2.01-.02 3.98-.536 5.75-1.501a68.696 68.696 0 0 0 18.17 2.383c24.39 0 44.16-12.027 44.16-26.86V185.661c0-14.835-19.77-26.863-44.16-26.863Z"/>
  <path fill="#A5C5E8" d="M1084 325.886a3.31 3.31 0 0 1-3.31 3.303 3.302 3.302 0 0 1-2.33-.971 3.298 3.298 0 0 1-.97-2.332v-81.993a3.32 3.32 0 0 1 .97-2.324 3.319 3.319 0 0 1 2.33-.966c.87-.001 1.71.345 2.33.962.62.617.97 1.454.98 2.328v81.993Zm-23.85 0a3.291 3.291 0 0 1-3.3 3.303 3.284 3.284 0 0 1-2.33-.971 3.298 3.298 0 0 1-.97-2.332v-81.993c0-.872.35-1.708.97-2.324a3.301 3.301 0 0 1 2.33-.966 3.302 3.302 0 0 1 3.3 3.29v81.993Z"/>
  <path fill="#5786C5" stroke="#4540DB" stroke-miterlimit="10" stroke-width="1.192" d="M1235.49 292.616c0 71.611-16.86 129.662-37.65 129.662s-37.64-58.051-37.64-129.662c0-71.612 16.85-129.663 37.64-129.663s37.65 58.051 37.65 129.663Z"/>
  <path fill="#4540DB" d="M1189.07 313.163c0 1.329-.52 2.604-1.47 3.544a5.001 5.001 0 0 1-3.54 1.468c-.66 0-1.32-.13-1.93-.382a5.022 5.022 0 0 1-1.62-1.086 4.918 4.918 0 0 1-1.09-1.626 5.046 5.046 0 0 1-.38-1.918v-43.849c0-.658.13-1.31.38-1.918.25-.608.62-1.16 1.09-1.625a5.01 5.01 0 0 1 1.62-1.087 5.07 5.07 0 0 1 1.93-.381c1.33 0 2.6.528 3.54 1.468a4.97 4.97 0 0 1 1.47 3.543v43.849Zm28.24-16.913a5.014 5.014 0 0 1-5.02 5.012 5.014 5.014 0 0 1-5.02-5.012V252.4a5.012 5.012 0 0 1 5.02-5.011 5.012 5.012 0 0 1 5.02 5.011v43.85Z"/>
  <path fill="#fff" d="m1112.37 787.522-3.92 22.708-21.64 3.445 4.86-22.238"/>
  <path stroke="#4540DB" stroke-linecap="round" stroke-linejoin="round" stroke-width="1.192" d="m1112.37 787.522-3.92 22.708-21.64 3.445 4.86-22.238"/>
  <path fill="#4540DB" d="M1013.57 470.082s-32.635 4.887-30.024 36.497c.886 10.717 19.254 103.299 19.254 103.299l85.68-8.143s-23.01-117.967-37.7-127.743c-14.69-9.776-37.21-3.91-37.21-3.91Z"/>
  <path fill="#4540DB" d="M1002.8 609.878s4.14 26.157 13.38 50.834c13.93 37.182 25.87 55.658 22.52 83.22-5.01 41.289-20.75 64.575-20.75 64.575l36.23 5.794s22.59-75.797 19.24-86.655c-5.87-50.835-11.29-129.46-11.29-129.46l-59.33 11.692Z"/>
  <path fill="#4540DB" d="M1082.6 588.86s43.24 62.984 45.2 107.465c1.59 36.254-12.76 101.532-12.76 101.532l-30.27-.954s10.82-83.039 4.13-103.084c-19.58-35.192-48.94-78.094-48.94-78.094l42.64-26.865Z"/>
  <path fill="#A5C5E8" d="M1004.76 483.523s22.03-6.599 30.35 15.886c8.33 22.485.97 38.296-12.41 40.708-27.915 5.032-47.805-53.171-17.94-56.594Z"/>
  <path fill="#A5C5E8" d="M1058.37 503.335c.75 2.334-9.06 8.294-9.06 8.294a78.781 78.781 0 0 0-5.49-11.404 58.718 58.718 0 0 0-5.95-8.086c-3.74-3.483-8.63-8.371-14.12-10.792a35.604 35.604 0 0 0-6.19-2.201c-4.38-1.121-4.66-5.551-.19-6.315 2.21-.668 4.51-.974 6.82-.906 2.33.069 4.65.418 6.9 1.039 2.36.478 4.66 1.226 6.85 2.229a40.26 40.26 0 0 1 6.13 3.573c2.1 1.287 10.11 11.518 14.3 24.569Z"/>
  <path fill="#4540DB" d="m1014.38 430.795-3.34 21.53-15.108-13.849-5.365-10.694 6.035-5.692s22.808-18.414 26.498-22.6c3.68-4.185 15.75 19.226 5.36 28.935"/>
  <path fill="#fff" stroke="#4540DB" stroke-linecap="round" stroke-linejoin="round" stroke-width="1.192" d="m1008.51 448.574 1.88 26.395s9.42 4.766 14.81 4.033a12.573 12.573 0 0 0 8.11-4.535l-8.72-25.73-16.08-.163Z"/>
  <path fill="#fff" stroke="#4540DB" stroke-linecap="round" stroke-linejoin="round" stroke-width=".795" d="m1026.42 423.414-16.16 6.369s1.68 7.343 1.33 8.195c0 .002-4.61 2.785-4.62 2.787-2.24 1.553-2.46 5.114-.48 7.959 1.97 2.843 5.39 3.889 7.63 2.336.51-.36.93-.834 1.23-1.384 4.65 4.698 7.99 6.846 14.14 6.846 11.65 0-3.07-33.108-3.07-33.108Z"/>
  <path fill="#fff" stroke="#4540DB" stroke-linecap="round" stroke-linejoin="round" stroke-width="1.192" d="M1069.38 395.851h-9.3c1.08 20.919-9.89 40.253-22.46 55.522l16.49 13.687c15.87-33.497 15.27-69.209 15.27-69.209Z"/>
  <path fill="#A5C5E8" stroke="#4540DB" stroke-linecap="round" stroke-linejoin="round" stroke-width="1.192" d="M1001.74 484.303a46.33 46.33 0 0 0-5.704 8.458c-3.027 5.687-3.027 13.524 1.871 16.456 15.663 10.756 30.353-6.809 39.823-18.231 1.96-2.375 3.79-4.772 5.51-7.304 1.72-2.528 3.32-5.001 4.83-7.634 1.11-1.82 2.16-3.39 3.15-5.244 1.02-1.901 1.98-3.82 2.89-5.744l-16.49-13.687c-.23.276-30.9 27.507-35.88 32.93Z"/>
  <path fill="#A5C5E8" stroke="#4540DB" stroke-linecap="round" stroke-linejoin="round" stroke-width="1.192" d="m1040.31 440.875-9.03 10.833 24.4 20.269 9.03-10.833-24.4-20.269Z"/>
  <path fill="#fff" stroke="#4540DB" stroke-linecap="round" stroke-linejoin="round" stroke-width="1.192" d="M1079.42 579.236s-52.3 14.43-80.413 10.967l2.053 25.105s54.32-13.334 79.75-26.61c.45-.236.02-1.427.02-1.427l-1.41-8.035Z"/>
  <path fill="#A5C5E8" stroke="#4540DB" stroke-linecap="round" stroke-linejoin="round" stroke-width="1.192" d="m1103.67 826.579-1.96-2.443-19.32-1.299-1.65 5.29s56.05 6.355 57.03 2.199c.32-1.328.63-2.104.52-2.774l-34.62-.973Z"/>
  <path fill="#A5C5E8" stroke="#4540DB" stroke-linecap="round" stroke-linejoin="round" stroke-width="1.192" d="m1103.67 826.579 34.62.973c-.21-1.422 2.22-2.957-5.78-7.613-4.34-2.525-13.5-2.669-16.77-5.131a33.279 33.279 0 0 1-8.48-9.573s-7.43 9.043-11.59 7.332c-4.16-1.712-9.06-3.259-9.06-3.259l-4.22 13.529 19.32 1.299 1.96 2.443Zm-67.72 14.428-1.87-2.518-19.25-2.046-1.86 5.222s55.77 8.524 56.91 4.408c.37-1.315.71-2.079.63-2.751l-34.56-2.315Z"/>
  <path fill="#A5C5E8" stroke="#4540DB" stroke-linecap="round" stroke-linejoin="round" stroke-width="1.192" d="m1035.95 841.007 34.56 2.315c-.16-1.431 2.33-2.869-5.48-7.832-4.24-2.693-13.39-3.192-16.56-5.778a33.317 33.317 0 0 1-8.11-9.895s-7.77 8.749-11.86 6.878c-4.09-1.872-8.92-3.607-8.92-3.607l-4.75 13.356 19.25 2.045 1.87 2.518Z"/>
  <path fill="#4540DB" d="m1070.79 400.061-11.39-.507a6.707 6.707 0 0 1-1.29-1.088c-.58-.652.73-2.898.73-2.898s-5.53-6.41-6.34-12.068c-.81-5.657-3.2-13.5-.5-13.5s2.64 8.54 3.98 8c.68-.268.65-6.502 0-10.847-.64-4.344-1.88-9.058 0-8.653 3.78.807 5.09 15.177 5.09 15.177s.4-4.46.5-9.134c.12-5.014.03-10.265 2.4-10.166 2.06.083 1.1 4.516 1.53 9.123.31 3.032.14 6.524.79 9.5 0 0 2.09-16.115 3.71-14.5 1.62 1.615.55 15.98 1.52 16 .96.02 2.71-9.619 4.05-8.81 1.35.807-.53 16.969-.53 16.969s.26 9.517-3.52 13.826c0 0 1.55 2.947-.73 3.576Z"/>
  <path fill="#fff" d="M1055.69 525.666c1.2 3.121 1.12 6.054-.17 6.551-1.29.496-3.32-1.631-4.52-4.752-1.2-3.123-1.13-6.057.17-6.553 1.29-.496 3.31 1.632 4.52 4.754Zm10.66-6.472c1.2 3.121 1.13 6.054-.16 6.551-1.3.496-3.32-1.631-4.52-4.752-1.2-3.123-1.13-6.057.17-6.554 1.29-.495 3.31 1.633 4.51 4.755Z"/>
  <path fill="#DCE8F6" stroke="#4540DB" stroke-linecap="round" stroke-linejoin="round" stroke-width="1.192" d="M998.133 587.329h20.917c1.66 0 3.26.66 4.43 1.834a6.25 6.25 0 0 1 1.84 4.431v42.177c0 1.661-.66 3.255-1.84 4.429a6.259 6.259 0 0 1-4.43 1.835h-20.918c-1.664 0-3.26-.66-4.436-1.835a6.256 6.256 0 0 1-1.838-4.429v-42.178a6.26 6.26 0 0 1 1.838-4.43 6.282 6.282 0 0 1 4.437-1.834Z"/>
  <path fill="#5786C5" d="M1877.99 678.233c-.14-1.888-.28-3.668-.41-5.351-.13-1.683-.14-3.264-.22-4.722-.07-1.458-.15-2.803-.14-4.017-.03-1.595-.04-2.934-.04-4.059 2.78-2.73 22.73-23.87 6.33-53.91 0 0-30.3 21.897-6.88 53.897-.17 1.105-.36 2.44-.54 4.013-.31 2.429-.54 5.391-.76 8.8-.08 1.701-.15 3.516-.23 5.426-.11 1.92.18 3.921.27 6.019.11 1.632.21 3.338.33 5.078-1.12-1.474-2.6-3.413-4.09-5.365-.75-.978-1.5-1.966-2.21-2.876-.27-.332-.53-.655-.79-.971 4.54-41.621-25.65-47.494-25.65-47.494.75 43.886 18.54 47.691 24.04 47.816.4.495.83 1.014 1.28 1.568.7.913 1.45 1.888 2.19 2.857 1.49 1.948 2.97 3.895 4.08 5.359.17.171.23.389.41.514.18.135.34.257.49.38.17.121.29.207.42.313.22 2.047.46 4.143.68 6.306.14 1.195.24 2.407.41 3.629.19 1.214.39 2.447.58 3.692.4 2.492.8 5.039 1.21 7.625.51 2.605.99 5.161 1.58 7.808.28 1.251.58 2.516.87 3.777-.17-.334-.35-.659-.55-.974-.36-.591-.72-1.188-1.09-1.791-.71-1.197-1.44-2.403-2.12-3.529-.74-1.093-1.43-2.11-2.02-2.987a5.362 5.362 0 0 0-.43-.613c-.18-.171-.36-.321-.51-.477-.16-.135-.28-.224-.42-.339-.89-6.468-6.35-32.001-37.86-37.776 0 0-2.02 37.237 37.54 39.242.03.067.06.127.08.198.12.213.26.418.41.611.59.859 1.26 1.858 1.99 2.927.66 1.11 1.39 2.291 2.1 3.487.35.591.71 1.182 1.06 1.766.35.564.67 1.148.95 1.749.58 1.166 1.11 2.25 1.57 3.175.09.231.21.452.34.659.09.114.18.216.27.327 1.15 4.844 2.32 9.724 3.18 14.645.54 2.702.86 5.429 1.23 8.131.18 1.357.24 2.723.37 4.068.1 1.357.25 2.708.24 4.055 0 .308.01.602.01.912-.09-.184-.18-.369-.28-.555-.44-.852-.92-1.68-1.44-2.481-.5-.87-1.15-1.67-1.74-2.539-.66-.811-1.32-1.65-2.05-2.429-.71-.678-1.37-1.416-2.14-2.03.19-.064.36-.102.55-.163 0 0-10.29-30.748-43.64-25.012 0 0 7.84 35.168 41.41 25.669.19.153.37.296.55.448.78.649 1.51 1.344 2.2 2.081.7.739 1.33 1.543 1.96 2.317.57.828 1.19 1.596 1.66 2.433.53.806.99 1.605 1.39 2.386.43.771.77 1.527 1.1 2.219.18.343.25.712.44 1.01.03.044.05.09.08.133.01 1.214 0 2.42-.08 3.621-.06 1.319-.11 2.63-.17 3.933-.11 1.305-.27 2.599-.4 3.875-.12 1.283-.26 2.548-.39 3.807-.2 1.255-.4 2.493-.6 3.716-.41 2.452-.75 4.856-1.31 7.157-.52 2.311-1.01 4.559-1.49 6.742-.14.509-.27 1.009-.41 1.511-.12-.488-.25-.981-.41-1.467a22.003 22.003 0 0 0-2.71-5.543c-.12-.157-.18-.371-.34-.49-.15-.131-.31-.241-.45-.348-.19-.14-.35-.239-.51-.347-.3-3.411-3.44-28.4-31.11-31.242 0 0-1.78 32.748 30.5 31.646.07.192.14.383.22.616.06.158.11.333.18.512.06.171.22.291.31.466a20.369 20.369 0 0 1 2.52 5.174c.33.971.56 1.97.69 2.984.08.463.13.929.15 1.397v.195c-.11.392-.21.784-.31 1.169-.28.993-.55 1.976-.81 2.935-.28.942-.61 1.858-.82 2.781-.46 1.839-.89 3.577-1.3 5.217-.77 3.295-1.62 6.116-2.3 8.45-1.35 4.678-2.07 7.378-2.07 7.378s1.15-2.534 3.09-7.01c.97-2.247 2.17-4.958 3.35-8.152.43-1.09.88-2.248 1.35-3.439.1-.05.19-.092.3-.149.17-.079.34-.167.53-.259.18-.079.29-.28.47-.41.33-.325.68-.622 1.06-.887.4-.275.84-.568 1.29-.868.45-.302.89-.639 1.38-.933.5-.243 1.02-.509 1.53-.772a9.925 9.925 0 0 1 1.55-.717c.53-.206 1.05-.399 1.54-.582.49-.181.99-.329 1.49-.442.48-.113.92-.271 1.34-.331.21-.017.42-.052.62-.105.09-.05.17-.088.27-.132 5.7 1.512 32.09 6.739 49.61-20.747 0 0-33.46-15.687-50.28 19.467-.16.025-.32.079-.5.092-.45.07-.91.229-1.42.347-.54.124-1.07.28-1.58.469-.53.197-1.09.405-1.65.621-.56.214-1.11.466-1.64.756-.54.274-1.08.553-1.61.83-.52.299-.99.651-1.46.964-.47.319-.93.631-1.36.928-.2.128-.4.276-.57.443.54-1.563.9-3.255 1.4-4.969.55-2.025 1.12-4.129 1.72-6.313.47-2.217.98-4.499 1.5-6.843.57-2.341.92-4.797 1.33-7.296.2-1.245.41-2.51.61-3.782.08-.659.15-1.333.21-1.999.08-.028.15-.06.23-.085.14-.062.19-.218.31-.306.85-.849 1.99-1.979 3.11-3.108 1.14-1.131 2.27-2.264 3.12-3.118.06-.081.15-.136.21-.205 7.26-1.051 31.73-6.837 37.58-37.445 0 0-37.41-2.297-39.59 37.397-.71.713-1.52 1.533-2.34 2.339-.84.84-1.68 1.679-2.41 2.404.13-1.232.28-2.472.38-3.735.06-1.338.11-2.687.17-4.039.2-2.711.07-5.457.03-8.236 0-1.382-.16-2.765-.25-4.159-.13-1.386-.19-2.793-.38-4.184-.28-2.065-.56-4.142-.9-6.206.04-.227.07-.456.08-.685.15-1.298.21-2.813.5-4.442.26-1.624.5-3.359.85-5.086.63-3.452 1.4-6.884 2-9.459.08-.303.15-.61.21-.921.01-.166.02-.328.02-.488 3.63-1.801 30.18-16.234 18.51-48.706 0 0-36.78 22.625-19.55 47.972-.01.031-.02.062-.04.091-.11.251-.23.515-.36.798-.11.282-.11.608-.21.928-.61 2.587-1.38 6.034-2.01 9.522-.36 1.735-.6 3.501-.86 5.146-.01.118-.02.234-.04.352-.9-4.543-1.97-9.004-3.01-13.404-.65-2.656-1.23-5.289-1.82-7.873-.58-2.587-1.07-5.245-1.57-7.746-.4-2.55-.8-5.069-1.19-7.529-.19-1.229-.38-2.447-.58-3.65-.16-1.204-.26-2.402-.4-3.579-.23-2.117-.44-4.165-.66-6.17.08-.58.19-1.154.34-1.719.16-.739.36-1.468.6-2.186.22-.727.47-1.443.77-2.142.26-.698.61-1.352.9-2.005.59-1.164 1.25-2.29 1.98-3.372.14-.248.34-.434.45-.675.11-.243.23-.479.32-.692 0-.015.01-.025.02-.044 5.77-1.79 24.31-9.422 19.38-32.369 0 0-26.56 6.23-21.11 32.546-.08.146-.17.285-.27.416a32.318 32.318 0 0 0-2.07 3.537c-.31.69-.67 1.368-.94 2.108-.27.644-.51 1.305-.72 1.979-.05-.856-.09-1.698-.15-2.525-.16-2.069-.17-4.048-.29-5.932Z"/>
  <path fill="#A5C5E8" d="M834.333 542.049a4.53 4.53 0 0 1-5.419 4.441 4.524 4.524 0 0 1-3.563-3.557 4.523 4.523 0 0 1 1.928-4.648 4.538 4.538 0 0 1 5.726.563 4.521 4.521 0 0 1 1.328 3.201Zm25.798 0a4.53 4.53 0 0 1-5.419 4.441 4.524 4.524 0 0 1-3.563-3.557 4.523 4.523 0 0 1 1.928-4.648 4.538 4.538 0 0 1 5.726.563 4.521 4.521 0 0 1 1.328 3.201Zm25.8 0a4.524 4.524 0 0 1-2.8 4.184 4.537 4.537 0 0 1-6.183-3.301 4.518 4.518 0 0 1 1.93-4.648 4.543 4.543 0 0 1 5.726.564 4.522 4.522 0 0 1 1.327 3.201Zm25.801 0a4.526 4.526 0 0 1-2.8 4.183 4.535 4.535 0 0 1-6.183-3.299 4.525 4.525 0 0 1 1.929-4.648 4.535 4.535 0 0 1 4.255-.419 4.535 4.535 0 0 1 2.799 4.183Zm25.801 0a4.518 4.518 0 0 1-2.799 4.183 4.536 4.536 0 0 1-6.183-3.299 4.522 4.522 0 0 1 1.929-4.648 4.536 4.536 0 0 1 5.725.563 4.521 4.521 0 0 1 1.328 3.201Zm25.799 0a4.524 4.524 0 0 1-2.8 4.184 4.535 4.535 0 0 1-6.183-3.302 4.532 4.532 0 0 1 .259-2.616 4.533 4.533 0 0 1 4.192-2.793 4.54 4.54 0 0 1 3.205 1.327c.85.849 1.327 2 1.327 3.2Zm-128.999 28.173a4.532 4.532 0 0 1-2.798 4.185 4.544 4.544 0 0 1-4.942-.98 4.52 4.52 0 0 1-.984-4.935 4.538 4.538 0 0 1 7.395-1.469 4.526 4.526 0 0 1 1.329 3.199Zm25.799 0a4.525 4.525 0 0 1-2.798 4.185 4.546 4.546 0 0 1-4.943-.98 4.524 4.524 0 0 1 .687-6.967 4.544 4.544 0 0 1 5.724.563 4.525 4.525 0 0 1 1.33 3.199Zm25.799 0a4.529 4.529 0 0 1-5.419 4.443 4.526 4.526 0 0 1 .887-8.968 4.53 4.53 0 0 1 4.532 4.525Zm25.801 0a4.525 4.525 0 0 1-2.798 4.185 4.537 4.537 0 0 1-6.184-3.299 4.515 4.515 0 0 1 1.928-4.648 4.54 4.54 0 0 1 5.725.563 4.524 4.524 0 0 1 1.329 3.199Zm25.801 0a4.532 4.532 0 0 1-5.418 4.443 4.524 4.524 0 0 1-2.322-1.239 4.52 4.52 0 0 1 .686-6.966 4.538 4.538 0 0 1 5.725.563 4.526 4.526 0 0 1 1.329 3.199Zm25.799 0a4.53 4.53 0 0 1-5.419 4.443 4.534 4.534 0 0 1-3.564-3.558 4.522 4.522 0 0 1 1.93-4.648 4.538 4.538 0 0 1 7.053 3.763Zm-128.999 28.177c0 .895-.266 1.771-.765 2.515a4.54 4.54 0 0 1-6.977.684 4.518 4.518 0 0 1-.982-4.934 4.532 4.532 0 0 1 4.19-2.794c.596 0 1.185.117 1.736.344a4.534 4.534 0 0 1 2.798 4.185Zm25.799 0a4.524 4.524 0 0 1-2.801 4.182 4.543 4.543 0 0 1-4.941-.983 4.527 4.527 0 0 1-.982-4.934 4.53 4.53 0 0 1 4.189-2.794 4.551 4.551 0 0 1 3.208 1.326 4.518 4.518 0 0 1 1.327 3.203Zm25.799 0a4.524 4.524 0 0 1-2.801 4.182 4.536 4.536 0 0 1-6.182-3.303 4.524 4.524 0 0 1 1.931-4.647 4.55 4.55 0 0 1 4.255-.417 4.538 4.538 0 0 1 2.453 2.452c.228.549.344 1.138.344 1.733Zm25.801 0a4.534 4.534 0 0 1-.765 2.515 4.535 4.535 0 0 1-8.218-1.634 4.53 4.53 0 0 1 4.448-5.41 4.514 4.514 0 0 1 1.736.344 4.53 4.53 0 0 1 2.799 4.185Zm25.801 0c0 .895-.266 1.77-.765 2.515a4.54 4.54 0 0 1-6.977.684 4.528 4.528 0 0 1-.982-4.934 4.539 4.539 0 0 1 8.38.002c.228.549.345 1.138.344 1.733Zm25.799 0a4.529 4.529 0 0 1-2.801 4.182 4.545 4.545 0 0 1-4.942-.984 4.524 4.524 0 0 1 3.211-7.727 4.532 4.532 0 0 1 4.532 4.529Zm-128.999 28.174a4.517 4.517 0 0 1-.763 2.516 4.54 4.54 0 0 1-6.978.687 4.526 4.526 0 0 1 3.207-7.73 4.532 4.532 0 0 1 3.206 1.326 4.517 4.517 0 0 1 1.328 3.201Zm25.798 0a4.517 4.517 0 0 1-2.799 4.184 4.544 4.544 0 0 1-4.942-.981 4.526 4.526 0 0 1 3.207-7.73 4.532 4.532 0 0 1 3.206 1.326 4.517 4.517 0 0 1 1.328 3.201Zm25.8 0a4.526 4.526 0 0 1-2.799 4.184 4.54 4.54 0 0 1-6.184-3.301 4.528 4.528 0 0 1 4.451-5.41 4.532 4.532 0 0 1 4.532 4.527Zm25.801 0a4.526 4.526 0 0 1-2.799 4.184 4.539 4.539 0 0 1-6.184-3.3 4.524 4.524 0 0 1 1.929-4.648 4.54 4.54 0 0 1 6.709 2.031c.228.55.345 1.139.345 1.733Zm25.801 0a4.517 4.517 0 0 1-.763 2.516 4.547 4.547 0 0 1-2.035 1.668 4.54 4.54 0 0 1-6.184-3.3 4.523 4.523 0 0 1 1.929-4.648 4.54 4.54 0 0 1 5.726.563 4.5 4.5 0 0 1 .982 1.469c.228.549.346 1.138.345 1.732Zm25.799 0a4.53 4.53 0 0 1-2.799 4.184 4.54 4.54 0 0 1-6.184-3.301 4.531 4.531 0 0 1 1.931-4.648 4.54 4.54 0 0 1 5.725.565c.85.849 1.327 2 1.327 3.2Z"/>
  <path fill="#5786C5" d="M1502.54 301.763c0 .659-.2 1.304-.56 1.852-.37.548-.89.975-1.5 1.227a3.341 3.341 0 0 1-3.64-.722 3.311 3.311 0 0 1-.91-1.706 3.26 3.26 0 0 1 .19-1.926c.25-.608.68-1.129 1.23-1.495a3.331 3.331 0 0 1 1.85-.561c.89 0 1.74.351 2.36.976.63.625.98 1.472.98 2.355Zm18.98 0c.01.659-.19 1.304-.56 1.852-.36.548-.89.975-1.5 1.227a3.32 3.32 0 0 1-1.92.19 3.31 3.31 0 0 1-1.71-.912 3.327 3.327 0 0 1-.92-1.706 3.427 3.427 0 0 1 .19-1.926c.26-.608.68-1.129 1.23-1.495a3.356 3.356 0 0 1 4.22.415c.62.624.97 1.472.97 2.355Zm18.99 0a3.3 3.3 0 0 1-.56 1.852 3.352 3.352 0 0 1-3.43 1.418 3.343 3.343 0 0 1-1.71-.913 3.338 3.338 0 0 1-.72-3.632c.25-.609.68-1.13 1.23-1.496.55-.366 1.2-.561 1.86-.56.88 0 1.73.351 2.35.976.63.625.98 1.472.98 2.355Zm18.99 0c0 .659-.2 1.304-.56 1.852a3.344 3.344 0 0 1-5.14.505 3.386 3.386 0 0 1-.91-1.706 3.34 3.34 0 0 1 .19-1.926c.25-.609.68-1.129 1.23-1.495a3.34 3.34 0 0 1 3.13-.308c.41.168.77.413 1.08.723.31.309.56.676.73 1.08.16.405.25.838.25 1.275Zm18.99 0c0 .659-.2 1.304-.56 1.852-.37.548-.89.975-1.5 1.227a3.34 3.34 0 0 1-3.64-.721 3.386 3.386 0 0 1-.91-1.706 3.34 3.34 0 0 1 .19-1.926c.25-.609.68-1.129 1.23-1.495a3.342 3.342 0 0 1 4.21.413c.63.625.98 1.473.98 2.356Zm18.99 0c0 .66-.2 1.304-.57 1.853-.36.548-.88.975-1.49 1.228a3.37 3.37 0 0 1-1.93.19 3.311 3.311 0 0 1-1.71-.913 3.326 3.326 0 0 1-.92-1.707 3.34 3.34 0 0 1 .19-1.926c.26-.609.68-1.129 1.23-1.495a3.348 3.348 0 0 1 4.22.415c.62.625.97 1.472.98 2.355Zm-94.94 20.735c0 .659-.2 1.303-.56 1.851a3.36 3.36 0 0 1-1.5 1.229 3.341 3.341 0 0 1-3.64-.722 3.311 3.311 0 0 1-.91-1.706 3.26 3.26 0 0 1 .19-1.926c.25-.609.68-1.129 1.23-1.495a3.324 3.324 0 0 1 1.85-.562c.89.001 1.73.352 2.36.976.63.624.98 1.471.98 2.355Zm18.98 0c.01.659-.19 1.303-.56 1.851a3.28 3.28 0 0 1-1.49 1.228 3.344 3.344 0 0 1-3.64-.721 3.327 3.327 0 0 1-.92-1.706 3.427 3.427 0 0 1 .19-1.926c.26-.609.68-1.129 1.23-1.495.55-.366 1.2-.562 1.86-.562.88.001 1.73.352 2.36.976.62.624.97 1.471.97 2.355Zm18.99 0c0 .659-.19 1.304-.56 1.852a3.345 3.345 0 0 1-3.43 1.419 3.382 3.382 0 0 1-1.71-.913 3.385 3.385 0 0 1-.91-1.707 3.343 3.343 0 0 1 .19-1.926c.25-.609.68-1.129 1.23-1.495.55-.366 1.2-.561 1.86-.561.88.001 1.73.352 2.35.976.63.625.98 1.471.98 2.355Zm18.99 0c0 .659-.2 1.303-.56 1.852a3.353 3.353 0 0 1-3.43 1.418 3.348 3.348 0 0 1-1.71-.912 3.386 3.386 0 0 1-.91-1.706 3.34 3.34 0 0 1 .19-1.926c.25-.609.68-1.13 1.23-1.496a3.331 3.331 0 0 1 1.85-.561c.89 0 1.74.351 2.36.976.63.624.98 1.471.98 2.355Zm18.99 0c0 .659-.2 1.303-.56 1.851a3.36 3.36 0 0 1-1.5 1.229 3.353 3.353 0 0 1-3.64-.721 3.386 3.386 0 0 1-.91-1.706 3.34 3.34 0 0 1 .19-1.926c.25-.609.68-1.129 1.23-1.496a3.332 3.332 0 0 1 4.21.414c.63.624.98 1.471.98 2.355Zm18.99 0c0 .659-.2 1.304-.57 1.852-.36.549-.88.976-1.49 1.229-.61.252-1.29.319-1.93.19a3.302 3.302 0 0 1-1.71-.912 3.326 3.326 0 0 1-.92-1.707 3.34 3.34 0 0 1 .19-1.926c.26-.609.68-1.13 1.23-1.496.55-.366 1.2-.561 1.86-.561.88.001 1.73.352 2.36.977.62.624.97 1.471.98 2.354Zm-94.94 20.736c0 .659-.2 1.303-.56 1.851a3.344 3.344 0 0 1-5.14.504 3.311 3.311 0 0 1-.91-1.706 3.256 3.256 0 0 1 .19-1.925c.25-.609.68-1.13 1.23-1.496a3.339 3.339 0 0 1 5.19 2.772Zm18.98 0a3.317 3.317 0 0 1-2.06 3.078c-.61.252-1.28.318-1.92.189a3.31 3.31 0 0 1-1.71-.912 3.327 3.327 0 0 1-.92-1.706 3.422 3.422 0 0 1 .19-1.925c.26-.609.68-1.13 1.23-1.496a3.356 3.356 0 0 1 4.22.415c.62.625.97 1.473.97 2.357Zm18.99 0a3.3 3.3 0 0 1-.56 1.851 3.344 3.344 0 0 1-5.14.504 3.338 3.338 0 0 1-.72-3.632c.25-.609.68-1.13 1.23-1.495.55-.366 1.2-.561 1.86-.561.43 0 .87.086 1.27.254.41.167.78.413 1.09.722.31.31.55.677.72 1.082.17.404.25.837.25 1.275Zm18.99 0c0 .659-.2 1.303-.56 1.851a3.344 3.344 0 0 1-5.14.504 3.34 3.34 0 0 1-.72-3.632c.25-.609.68-1.129 1.23-1.495a3.331 3.331 0 0 1 3.13-.307 3.395 3.395 0 0 1 1.81 1.803c.16.405.25.838.25 1.276Zm18.99 0c0 .659-.2 1.303-.56 1.851a3.353 3.353 0 0 1-3.43 1.417 3.348 3.348 0 0 1-1.71-.912 3.34 3.34 0 0 1-.72-3.632c.25-.608.68-1.129 1.23-1.495a3.332 3.332 0 0 1 4.21.414c.63.625.98 1.473.98 2.357Zm18.99 0c0 .659-.2 1.303-.57 1.852-.36.548-.89.975-1.5 1.227a3.327 3.327 0 0 1-3.63-.723 3.326 3.326 0 0 1-.92-1.707 3.34 3.34 0 0 1 .19-1.926c.26-.609.68-1.129 1.23-1.495.55-.366 1.2-.561 1.86-.561.88.001 1.73.352 2.36.977.62.625.98 1.472.98 2.356Zm-94.94 20.734c0 .66-.2 1.304-.56 1.852-.37.548-.89.975-1.5 1.227a3.348 3.348 0 0 1-3.64-.722 3.311 3.311 0 0 1-.91-1.706 3.26 3.26 0 0 1 .19-1.926c.25-.609.68-1.129 1.23-1.495a3.339 3.339 0 0 1 4.21.414c.31.31.56.677.72 1.081.17.405.26.838.26 1.275Zm18.98 0c0 .659-.19 1.304-.56 1.852-.36.548-.89.975-1.5 1.227-.61.252-1.28.318-1.92.189a3.302 3.302 0 0 1-1.71-.912 3.323 3.323 0 0 1-.92-1.706 3.424 3.424 0 0 1 .19-1.925c.26-.609.68-1.129 1.23-1.495a3.356 3.356 0 0 1 4.22.414c.31.31.55.677.72 1.081.17.405.26.838.25 1.275Zm18.99 0a3.3 3.3 0 0 1-.56 1.852 3.352 3.352 0 0 1-3.43 1.418 3.35 3.35 0 0 1-1.71-.913 3.385 3.385 0 0 1-.91-1.707 3.342 3.342 0 0 1 .19-1.926c.25-.609.68-1.129 1.23-1.495a3.355 3.355 0 0 1 4.22.415c.31.31.55.677.72 1.081.17.405.25.838.25 1.275Zm18.99 0c0 .66-.2 1.304-.56 1.852-.37.548-.89.975-1.5 1.227a3.348 3.348 0 0 1-3.64-.722 3.338 3.338 0 0 1-.72-3.632c.25-.609.68-1.129 1.23-1.495a3.323 3.323 0 0 1 1.85-.561c.44-.001.88.085 1.28.253a3.384 3.384 0 0 1 1.81 1.803c.16.405.25.838.25 1.275Zm18.99 0c0 .66-.2 1.304-.56 1.852-.37.548-.89.975-1.5 1.227a3.341 3.341 0 0 1-3.64-.722 3.338 3.338 0 0 1-.72-3.631 3.331 3.331 0 0 1 4.36-1.804 3.384 3.384 0 0 1 1.81 1.803c.16.404.25.838.25 1.275Zm18.99 0c0 .66-.2 1.304-.57 1.853-.36.548-.89.975-1.5 1.228-.61.252-1.28.318-1.92.189a3.302 3.302 0 0 1-1.71-.912 3.326 3.326 0 0 1-.92-1.707 3.34 3.34 0 0 1 .19-1.926c.26-.609.68-1.13 1.23-1.496a3.355 3.355 0 0 1 4.22.416c.62.625.98 1.472.98 2.355Zm-380.65 447.529s-25.38-127.202-2.26-118.601c23.12 8.602 26.29 106.833 15.87 120.865"/>
  <path stroke="#4540DB" stroke-miterlimit="10" stroke-width="1.192" d="M1216.83 811.497s-25.38-127.202-2.26-118.601c23.12 8.602 26.29 106.833 15.87 120.865"/>
  <path fill="#A5C5E8" d="M1214.37 816.181s-4.52-51.941-29.4-49.234c-24.88 2.714 11.31 45.167 17.64 49.234"/>
  <path stroke="#4540DB" stroke-linecap="round" stroke-linejoin="round" stroke-width="1.192" d="M1214.37 816.181s-4.52-51.941-29.4-49.234c-24.88 2.714 11.31 45.167 17.64 49.234"/>
  <path fill="#A5C5E8" d="M1185.42 745.721s-6.78 20.324 11.31 16.713c18.1-3.615 12.84-4.295 12.84-4.295"/>
  <path stroke="#4540DB" stroke-miterlimit="10" stroke-width="1.192" d="M1185.42 745.721s-6.78 20.324 11.31 16.713c18.1-3.615 12.84-4.295 12.84-4.295"/>
  <path fill="#DCE8F6" d="M1219.8 815.726s-5.88-77.684-14.47-80.845c-8.6-3.16-23.07 3.614-19.91 10.84 3.17 7.226 24.43 70.459 24.43 70.459"/>
  <path stroke="#4540DB" stroke-linecap="round" stroke-linejoin="round" stroke-width="1.192" d="M1219.8 815.726s-5.88-77.684-14.47-80.845c-8.6-3.16-23.07 3.614-19.91 10.84 3.17 7.226 24.43 70.459 24.43 70.459"/>
  <path fill="#A5C5E8" d="M1271.24 730.469s5.89 24.445-5.44 32.593c-11.33 8.145-19.95-6.79-19.95-6.79l-1.81-26.708"/>
  <path stroke="#4540DB" stroke-miterlimit="10" stroke-width="1.192" d="M1271.24 730.469s5.89 24.445-5.44 32.593c-11.33 8.145-19.95-6.79-19.95-6.79l-1.81-26.708"/>
  <path fill="#DCE8F6" d="M1224.54 814.212s6.35-103.208 28.57-96.872c22.21 6.34 18.13 18.561 18.13 18.561s-5.44-4.978-8.61 1.357c-3.18 6.34-19.5 78.767-19.5 78.767"/>
  <path stroke="#4540DB" stroke-linecap="round" stroke-linejoin="round" stroke-width="1.192" d="M1224.54 814.212s6.35-103.208 28.57-96.872c22.21 6.34 18.13 18.561 18.13 18.561s-5.44-4.978-8.61 1.357c-3.18 6.34-19.5 78.767-19.5 78.767"/>
  <path fill="#A5C5E8" d="M1234.54 814.414s9.08-51.342 33.63-46.458c24.54 4.882-15.24 43.996-21.91 47.491"/>
  <path stroke="#4540DB" stroke-miterlimit="10" stroke-width="1.192" d="M1234.54 814.414s9.08-51.342 33.63-46.458c24.54 4.882-15.24 43.996-21.91 47.491"/>
  <path stroke="#4540DB" stroke-linecap="round" stroke-linejoin="round" stroke-width=".795" d="M1214.11 699.234s11.92 74.214 7.83 114.955m-25.05-75.118s15.41 53.866 16.77 72.426m-29.02-37.571s18.14 27.162 20.86 38.929m48.51-88.27s-18.59 55.676-23.57 86.008m8.83 3.292-.44-.245c10.32-18.364 24.81-37.411 24.96-37.602l.39.303c-.14.189-14.61 19.213-24.91 37.544Z"/>
  <path fill="#5786C5" stroke="#4540DB" stroke-miterlimit="10" stroke-width="1.192" d="M1263.99 811.955h-74.96V828.7h74.96v-16.745Z"/>
  <path fill="#A5C5E8" d="M1856.84 568.584v-9.902h-7.94a25.149 25.149 0 0 0-3.78-9.097l5.61-5.604-7.01-7.004-5.61 5.605a25.259 25.259 0 0 0-9.11-3.77v-7.923h-9.92v7.923a25.186 25.186 0 0 0-9.11 3.77l-5.62-5.605-7.01 7.004 5.61 5.604a25.313 25.313 0 0 0-3.77 9.097h-7.94v9.902h7.94c.65 3.25 1.93 6.341 3.77 9.096l-5.61 5.605 7.01 7.003 5.62-5.605a25.153 25.153 0 0 0 9.11 3.771v7.923h9.92v-7.923a25.26 25.26 0 0 0 9.11-3.771l5.61 5.605 7.01-7.003-5.61-5.605a25.144 25.144 0 0 0 3.78-9.096h7.94Zm-32.8 9.083c-2.78 0-5.5-.823-7.81-2.364a14.096 14.096 0 0 1-5.18-6.298 14.066 14.066 0 0 1-.8-8.109 13.988 13.988 0 0 1 3.85-7.186 14.047 14.047 0 0 1 7.19-3.841 14.049 14.049 0 0 1 14.43 5.967 13.976 13.976 0 0 1 2.37 7.797c0 3.722-1.48 7.291-4.11 9.922a14.078 14.078 0 0 1-9.94 4.112Z"/>
  <path fill="#5786C5" d="M1537.96 308.171v-6.944h-5.57a17.484 17.484 0 0 0-2.65-6.378l3.94-3.93-4.92-4.911-3.94 3.93a17.604 17.604 0 0 0-6.38-2.643v-5.556h-6.96v5.556c-2.28.452-4.45 1.35-6.39 2.643l-3.93-3.93-4.92 4.911 3.94 3.93a17.484 17.484 0 0 0-2.65 6.378h-5.57v6.944h5.57a17.47 17.47 0 0 0 2.65 6.378l-3.94 3.93 4.92 4.911 3.93-3.93a17.744 17.744 0 0 0 6.39 2.644v5.555h6.96v-5.555a17.641 17.641 0 0 0 6.38-2.644l3.94 3.93 4.92-4.911-3.94-3.93c1.3-1.931 2.2-4.098 2.65-6.378h5.57Zm-23 6.369a9.88 9.88 0 0 1-5.48-1.658 9.873 9.873 0 0 1-3.63-4.416 9.88 9.88 0 0 1-.56-5.686 9.859 9.859 0 0 1 17.86-3.548 9.773 9.773 0 0 1 1.66 5.467 9.82 9.82 0 0 1-2.88 6.958 9.882 9.882 0 0 1-6.97 2.883Z"/>
  <path fill="#fff" stroke="#4540DB" stroke-linecap="round" stroke-linejoin="round" stroke-width="1.192" d="M1540.09 760.412c0 2.321-.45 4.619-1.34 6.763a17.713 17.713 0 0 1-16.36 10.907h-127.43c-2.32 0-4.63-.456-6.77-1.344a17.772 17.772 0 0 1-5.75-3.83 17.716 17.716 0 0 1-5.18-12.496v0a17.72 17.72 0 0 1 5.18-12.497 17.775 17.775 0 0 1 5.75-3.831 17.696 17.696 0 0 1 6.77-1.344h127.43c2.33-.001 4.63.456 6.78 1.344 2.15.888 4.1 2.19 5.74 3.831a17.738 17.738 0 0 1 3.84 5.734 17.631 17.631 0 0 1 1.34 6.763Zm0-101.786c0 2.321-.45 4.619-1.34 6.763a17.748 17.748 0 0 1-3.84 5.734 17.623 17.623 0 0 1-5.74 3.83 17.746 17.746 0 0 1-6.78 1.344h-127.43c-2.32 0-4.63-.456-6.77-1.344-2.15-.888-4.1-2.19-5.75-3.831a17.716 17.716 0 0 1-5.18-12.496v0a17.716 17.716 0 0 1 5.18-12.496 17.772 17.772 0 0 1 5.75-3.83 17.695 17.695 0 0 1 6.77-1.343h127.43c2.33-.001 4.63.455 6.78 1.343 2.15.887 4.1 2.189 5.74 3.83a17.744 17.744 0 0 1 3.84 5.733 17.631 17.631 0 0 1 1.34 6.763v0Z"/>
  <path fill="#A5C5E8" d="M1463.05 664.054c0 1.114-.22 2.218-.65 3.247a8.35 8.35 0 0 1-1.84 2.753 8.5 8.5 0 0 1-2.75 1.84 8.556 8.556 0 0 1-3.26.645h-61.18a8.506 8.506 0 0 1-6.01-2.484 8.511 8.511 0 0 1-1.84-2.754 8.6 8.6 0 0 1-.64-3.247c0-1.114.22-2.217.64-3.247a8.666 8.666 0 0 1 1.84-2.752 8.523 8.523 0 0 1 6.01-2.484h61.18c1.12 0 2.22.219 3.26.645a8.48 8.48 0 0 1 2.75 1.839 8.356 8.356 0 0 1 1.84 2.752c.43 1.03.65 2.133.65 3.247Zm2.93 100.646a8.507 8.507 0 0 1-2.49 6 8.542 8.542 0 0 1-2.76 1.84 8.487 8.487 0 0 1-3.25.645h-61.18c-1.12 0-2.22-.219-3.25-.645a8.542 8.542 0 0 1-2.76-1.84 8.496 8.496 0 0 1-1.84-2.753 8.425 8.425 0 0 1 0-6.494 8.503 8.503 0 0 1 1.84-2.752 8.523 8.523 0 0 1 6.01-2.484h61.18a8.523 8.523 0 0 1 6.01 2.484 8.513 8.513 0 0 1 2.49 5.999Z"/>
  <path stroke="#4540DB" stroke-linecap="round" stroke-linejoin="round" stroke-width="1.987" d="M1904.24 699.182s175.77 12.902 268.42-43.456"/>
  <path fill="#fff" d="m1808.96 774.629 10.04 21.297-20.18 5.743-9.31-21.612"/>
  <path stroke="#4540DB" stroke-linecap="round" stroke-linejoin="round" stroke-width="1.192" d="m1808.96 774.629 10.04 21.297-20.18 5.743-9.31-21.612"/>
  <path fill="#fff" d="m1682.85 788.097 5.65 22.445-19.87 5.116-.84-25.787"/>
  <path stroke="#4540DB" stroke-linecap="round" stroke-linejoin="round" stroke-width="1.192" d="m1682.85 788.097 5.65 22.445-19.87 5.116-.84-25.787"/>
  <path fill="#4540DB" d="M1703.63 521.287s27.12 16.303 34.76 39.183c7.64 22.88 15.66 123.173 28.26 139.906 12.61 16.732 53.71 71.434 53.71 71.434l-31.48 18.062s-47.05-64.186-58.13-82.776c-11.08-18.589-29.41-102.485-29.41-102.485s-23.68 64.913-24.82 91.607c-1.15 26.695 17.94 98.664 17.94 98.664l-31.69.939s-19.87-67.665-21.78-102.654c-1.91-34.986 22.54-137.945 22.54-137.945"/>
  <path fill="#A5C5E8" stroke="#4540DB" stroke-linecap="round" stroke-linejoin="round" stroke-width="1.192" d="M1601.22 579.899c5.63-17.704 8.35-38.361 3.3-59.947-14.32-61.205-32.08-32.033-32.08-15.444 0 0 5.88 34.643 2.72 69.505 4.71 3.366 12.83 6.756 26.06 5.886Z"/>
  <path fill="#fff" stroke="#4540DB" stroke-linecap="round" stroke-linejoin="round" stroke-width="1.192" d="M1575.16 574.013c-1.97 21.625-7.41 43.334-19.91 56.91l15.46 4.004s20.17-22.535 30.51-55.028c-13.23.87-21.35-2.52-26.06-5.886Z"/>
  <path fill="#4540DB" d="M1569 503.936s5.72-33.179 40.67-28.602c34.95 4.577 93.96 45.763 93.96 45.763s-20.62 42.329-37.81 42.901c-17.19.571-96.82-33.178-96.82-57.774"/>
  <path fill="#A5C5E8" d="m1557.54 632.352-6.59 11.728-13.75 11.441 30.65 2.001-2.87-9.153 3.44-13.727"/>
  <path stroke="#4540DB" stroke-linecap="round" stroke-linejoin="round" stroke-width="1.192" d="m1557.54 632.352-6.59 11.728-13.75 11.441 30.65 2.001-2.87-9.153 3.44-13.727"/>
  <path fill="#A5C5E8" d="M1608.24 535.252s-14.61-24.07-8.88-38.182c5.73-14.107 11.2-15.038 11.2-15.038s-25.24-10.7-30.39 10.748c-5.16 21.452 13.32 36.038 13.32 36.038l14.75 6.434Z"/>
  <path fill="#A5C5E8" d="M1614.54 529.773s-21.48-45.666 13.85-42.235c29.47 2.862 46.04 33.506 41.07 41.324-4.96 7.818-54.92.911-54.92.911Z"/>
  <path fill="#A5C5E8" stroke="#4540DB" stroke-linecap="round" stroke-linejoin="round" stroke-width="1.192" d="m1801.67 818.068 1.8-3.191 22.07-5.127 2.9 5.797s-63.55 17.871-65.46 13.256c-.61-1.474-1.12-2.313-1.12-3.105l39.81-7.63Z"/>
  <path fill="#A5C5E8" stroke="#4540DB" stroke-linecap="round" stroke-linejoin="round" stroke-width="1.192" d="m1801.67 818.068-39.81 7.63c-.02-1.685-3.12-2.998 5.24-9.88 4.53-3.734 15.09-5.621 18.4-9.08a38.897 38.897 0 0 0 8-12.649s10.28 9.05 14.76 6.293c4.49-2.759 9.85-5.465 9.85-5.465l7.43 14.833-22.07 5.127-1.8 3.191Zm-132.33 8.296 2.37-2.796 22.64-.883 1.76 6.24s-65.79 5.595-66.79.701c-.33-1.56-.66-2.482-.52-3.26l40.54-.002Z"/>
  <path fill="#A5C5E8" stroke="#4540DB" stroke-linecap="round" stroke-linejoin="round" stroke-width="1.192" d="m1669.34 826.364-40.54.002c.3-1.658-2.49-3.531 7.01-8.717 5.16-2.812 15.88-2.68 19.79-5.453a38.994 38.994 0 0 0 10.24-10.919s8.39 10.822 13.31 8.958c4.93-1.865 10.7-3.517 10.7-3.517l4.5 15.967-22.64.883-2.37 2.796Z"/>
  <path fill="#fff" d="m1577.88 486.775 13.89.572s4.9 6.083 3.87 12.657c-1.01 6.363-5.09 9.795-9.46 10.295-4.36.501-7.16-9.081-7.16-9.081"/>
  <path stroke="#4540DB" stroke-linecap="round" stroke-linejoin="round" stroke-width="1.192" d="m1577.88 486.775 13.89.572s4.9 6.083 3.87 12.657c-1.01 6.363-5.09 9.795-9.46 10.295-4.36.501-7.16-9.081-7.16-9.081"/>
  <path fill="#fff" stroke="#4540DB" stroke-linecap="round" stroke-linejoin="round" stroke-width="1.192" d="M1552.38 500.885s17.57 35.084 25.21 25.169c7.64-9.915 5.16-38.135 5.16-38.135s-15.09-2.288-30.37 12.966Z"/>
  <path fill="#4540DB" d="m1571.67 498.215 5.92 3.147s-1.34-3.337.67-4.196c2.01-.857 6.11 1.622 5.06 5.817l4.01-6.293-4.68-11.916"/>
  <path fill="#4540DB" d="M1583.32 484.869s-.95-17.256-17.86-14.968c-9.84 1.331-29.88 18.401-14.99 33.273 0 0 24.06 4.956 32.85-18.305Z"/>
  <path fill="#fff" stroke="#4540DB" stroke-linecap="round" stroke-linejoin="round" stroke-width="1.192" d="M1654.36 561.899s50.8-12.203 48.32-40.612l10.88 7.818s-3.53 16.075-14.87 24.918c-10.43 8.135-24.62 12.529-36.5 11.881l-7.83-4.005Z"/>
  <path fill="#A5C5E8" stroke="#4540DB" stroke-linecap="round" stroke-linejoin="round" stroke-width="1.192" d="m1568.51 564.46-3.01 15.157 40.56 8.028 3.01-15.157-40.56-8.028Z"/>
  <path fill="#fff" stroke="#4540DB" stroke-linecap="round" stroke-linejoin="round" stroke-width="1.192" d="M1509.19 579.335a62.1 62.1 0 0 0-22.19 3.919c-.1-.001-.2-.014-.29-.014-4.34 0-8.49 2.69-12.32 7.603-3.44 3.207-5.7 6.919-6.44 10.915-9.98 21.544-16.63 59.778-16.63 103.364 0 67.311 15.85 121.878 35.39 121.878 1.83 0 16.39.829 22.48.829 22.92 0 41.51-11.305 41.51-25.247V604.586c0-13.945-18.59-25.251-41.51-25.251Z"/>
  <path fill="#A5C5E8" stroke="#4540DB" stroke-miterlimit="10" stroke-width="1.192" d="M1569.27 705.121c0 67.312-15.84 121.879-35.38 121.879-19.54 0-35.39-54.567-35.39-121.879 0-67.313 15.85-121.881 35.39-121.881s35.38 54.568 35.38 121.881Z"/>
  <path fill="#fff" stroke="#4540DB" stroke-linecap="round" stroke-linejoin="round" stroke-width="1.192" d="M1727.47 703.975a26.86 26.86 0 0 1 7.88-18.993 26.941 26.941 0 0 1 19.03-7.867h127.43c7.13 0 13.98 2.83 19.02 7.867a26.818 26.818 0 0 1 7.88 18.993c0 7.124-2.83 13.956-7.88 18.993a26.918 26.918 0 0 1-19.02 7.867h-127.43c-7.14 0-13.98-2.83-19.03-7.867a26.86 26.86 0 0 1-7.88-18.993v0Z"/>
  <path fill="#A5C5E8" d="M1892.45 683.41a23.197 23.197 0 0 1-7.35 15.285 23.262 23.262 0 0 1-15.81 6.205H1759.2a23.147 23.147 0 0 1-13.03-3.996c-.05.567-.09 1.135-.09 1.715 0 6.155 2.45 12.057 6.81 16.409a23.254 23.254 0 0 0 16.43 6.796h110.09c4.98.001 9.82-1.591 13.82-4.542 4-2.952 6.94-7.106 8.4-11.853a23.185 23.185 0 0 0-.29-14.52 23.247 23.247 0 0 0-8.89-11.499Z"/>
  <path fill="#fff" stroke="#4540DB" stroke-linecap="round" stroke-linejoin="round" stroke-width="1.192" d="M1670.83 694.079a50.05 50.05 0 0 1 3.83-19.206 50.194 50.194 0 0 1 10.89-16.284 50.294 50.294 0 0 1 16.31-10.879 50.366 50.366 0 0 1 19.24-3.82v0a50.313 50.313 0 0 1 35.55 14.699 50.194 50.194 0 0 1 10.89 16.284 49.857 49.857 0 0 1 3.82 19.206v19.789a49.867 49.867 0 0 1-3.82 19.208 50.2 50.2 0 0 1-10.89 16.283 50.28 50.28 0 0 1-16.31 10.88 50.346 50.346 0 0 1-19.24 3.819v0a50.346 50.346 0 0 1-19.24-3.819 50.28 50.28 0 0 1-16.31-10.88 50.2 50.2 0 0 1-10.89-16.283 50.063 50.063 0 0 1-3.83-19.208v-19.789Z"/>
  <path fill="#A5C5E8" d="M1742.01 733.153a45.404 45.404 0 0 1-32.08-13.268 45.245 45.245 0 0 1-13.29-32.037v-17.863a45.098 45.098 0 0 1 3.54-17.565 45.239 45.239 0 0 0-22.78 39.282v17.863a45.291 45.291 0 0 0 10.26 28.694 45.398 45.398 0 0 0 26.15 15.716 45.443 45.443 0 0 0 30.2-4.366 45.318 45.318 0 0 0 20.6-22.476 45.199 45.199 0 0 1-22.6 6.02Z"/>
  <path fill="#fff" stroke="#4540DB" stroke-linecap="round" stroke-linejoin="round" stroke-width="1.192" d="M1663.76 609.256h-100.54c-8-.005-15.91 1.688-23.21 4.97-19.03 40.964-27.82 132.422.01 179.497a56.444 56.444 0 0 0 23.2 4.967h100.54a56.664 56.664 0 0 0 40.04-16.559 56.444 56.444 0 0 0 12.28-18.345 56.401 56.401 0 0 0 4.31-21.64v-76.344c0-7.426-1.46-14.779-4.31-21.64a56.444 56.444 0 0 0-12.28-18.345 56.633 56.633 0 0 0-18.37-12.257 56.713 56.713 0 0 0-21.67-4.304v0Z"/>
  <path fill="#A5C5E8" d="M1699.61 763.197h-90.34a50.801 50.801 0 0 1-20.86-4.462c-20.76-35.128-18.83-97.729-7.79-139.044h-14.02a50.724 50.724 0 0 0-20.85 4.465c-17.11 36.814-25 119.003 0 161.309a50.837 50.837 0 0 0 20.85 4.461h90.35c9.2.003 18.23-2.486 26.13-7.203a50.814 50.814 0 0 0 18.72-19.58c-.73.031-1.45.054-2.19.054Z"/>
  <path fill="#A5C5E8" stroke="#4540DB" stroke-linecap="round" stroke-linejoin="round" stroke-width="1.192" d="M1642.13 573.587c2.22-13.176 3.09-42.621-1.19-57.066-11.76-39.625-29.16-15.126-29.16-.489 0 0 1.94 27.832.65 58.689 9.91.794 19.88.413 29.7-1.134v0Z"/>
  <path fill="#fff" stroke="#4540DB" stroke-linecap="round" stroke-linejoin="round" stroke-width="1.192" d="M1612.43 574.721c-1.05 24.95-4.28 54.592-18.88 70.447l11.08 3.132s30.46-32.91 37.5-74.713a126.13 126.13 0 0 1-29.7 1.134v0Z"/>
  <path fill="#A5C5E8" stroke="#4540DB" stroke-linecap="round" stroke-linejoin="round" stroke-width="1.192" d="M1647.29 571.877h-41.82v17.54h41.82v-17.54Z"/>
  <path fill="#4540DB" d="m1607.48 645.272-12.02-4.665c-.63.101-1.24.283-1.82.541-.9.411-.57 3.329-.57 3.329s-8.77 5.082-12.19 10.565c-3.43 5.483-10.02 10.773-7.23 12 2.79 1.23 6.08-5.173 7.23-4.002.57.586-1.59 5.182-4.23 9.385-2.65 4.202-6.29 7.634-4.15 8.075 4.27.886 13-12.5 13-12.5s-1.75 4.926-3.78 9.808c-2.17 5.241-4.67 10.627-2.16 11.608 2.16.847 4.1-3.992 6.65-8.561 1.7-2.993 3.29-6.355 5.62-8.664 0 0-5.43 16.295-3.02 15.362 2.41-.933 6.93-15.547 7.94-15.128 1 .417-1.79 10.796-.02 10.575 1.76-.222 7.19-17.798 7.19-17.798s4.62-9.723 2.68-15.903c0 0 2.95-2.342.88-4.027Z"/>
  <path fill="#A5C5E8" stroke="#4540DB" stroke-linecap="round" stroke-linejoin="round" stroke-width="1.192" d="M1739.38 546.876c.45.693.75 1.466.9 2.276.14.81.12 1.64-.05 2.444a6.34 6.34 0 0 1-.98 2.239 6.187 6.187 0 0 1-1.77 1.694l-14.26 9.12c-.7.443-1.47.746-2.28.891-.81.144-1.65.128-2.45-.048a6.166 6.166 0 0 1-2.24-.98 6.162 6.162 0 0 1-1.7-1.762l-18.61-29.015a6.432 6.432 0 0 1-.89-2.276 6.284 6.284 0 0 1 1.03-4.683 6.281 6.281 0 0 1 1.76-1.694l14.27-9.12a6.278 6.278 0 0 1 8.67 1.898l18.6 29.016Z"/>
  <path fill="#A5C5E8" d="M1703.12 543.468s17.98-.71 25.58-14.123Z"/>
  <path stroke="#4540DB" stroke-linecap="round" stroke-linejoin="round" stroke-width="1.192" d="M1703.12 543.468s17.98-.71 25.58-14.123"/>
  <path fill="#4540DB" d="M1695.57 434.744c0 2.602-.51 5.178-1.51 7.582s-2.46 4.588-4.3 6.428a19.877 19.877 0 0 1-14.03 5.802h-66.15c-5.26 0-10.31-2.087-14.03-5.803a19.798 19.798 0 0 1 0-28.018 19.857 19.857 0 0 1 14.03-5.803h66.15a19.877 19.877 0 0 1 14.03 5.803 19.88 19.88 0 0 1 4.3 6.427c1 2.404 1.51 4.98 1.51 7.582Z"/>
  <path fill="#4540DB" d="M1613.25 434.744h-23.51v19.731h23.51v-19.731Z"/>
  <path fill="#5786C5" d="M946.531 399.644h-96.208c-15.94 0-28.862 14.702-28.862 32.837 0 18.135 12.922 32.838 28.862 32.838h96.208c.859 0 1.708-.051 2.548-.135h26.314v-32.703c0-18.135-12.922-32.837-28.862-32.837Z"/>
  <path fill="#fff" d="M1626.48 434.091c0 .581-.17 1.149-.49 1.631a2.938 2.938 0 0 1-3.02 1.248 2.993 2.993 0 0 1-1.51-.803 2.914 2.914 0 0 1-.8-1.503c-.11-.57-.06-1.16.17-1.696a2.935 2.935 0 0 1 3.84-1.589c.36.148.68.364.95.637a2.886 2.886 0 0 1 .86 2.075Zm19.11 0c0 .581-.17 1.149-.49 1.631-.33.483-.79.859-1.32 1.081a2.953 2.953 0 0 1-3.21-.636 2.914 2.914 0 0 1-.8-1.503c-.11-.57-.06-1.16.17-1.696a2.93 2.93 0 0 1 2.71-1.812c.39 0 .77.076 1.13.223a2.967 2.967 0 0 1 1.59 1.589c.15.356.22.738.22 1.123Zm19.11 0c0 .581-.17 1.148-.5 1.631-.32.483-.78.859-1.31 1.081a2.955 2.955 0 0 1-3.21-.637c-.41-.41-.69-.933-.8-1.503a2.821 2.821 0 0 1 .17-1.696 2.931 2.931 0 0 1 2.71-1.811c.39 0 .77.076 1.13.224a2.948 2.948 0 0 1 1.59 1.588c.14.356.22.738.22 1.123Zm-792.505 4.487h-3.431l-1.428 8.724h-4.241l1.428-8.724h-4.731v-3.894h5.37l.938-5.618h-4.711v-3.893h5.35l1.471-8.852h4.22l-1.45 8.852h3.432l1.47-8.852h4.241l-1.47 8.852h4.923v3.893h-5.563l-.937 5.618h4.88v3.894h-5.52l-1.428 8.724h-4.241l1.428-8.724Zm-2.792-3.894h3.431l.938-5.618h-3.431l-.938 5.618Zm32.191 3.894h-3.432l-1.428 8.724h-4.241l1.428-8.724h-4.731v-3.894h5.37l.938-5.618h-4.71v-3.893h5.35l1.47-8.852h4.22l-1.449 8.852h3.431l1.471-8.852h4.241l-1.471 8.852h4.923v3.893h-5.562l-.938 5.618h4.881v3.894h-5.52l-1.428 8.724h-4.241l1.428-8.724Zm-2.793-3.894h3.432l.938-5.618h-3.432l-.938 5.618Zm32.191 3.894h-3.431l-1.428 8.724h-4.242l1.429-8.724h-4.732v-3.894h5.371l.937-5.618h-4.71v-3.893h5.35l1.47-8.852h4.22l-1.449 8.852h3.431l1.471-8.852h4.241l-1.471 8.852h4.924v3.893h-5.563l-.938 5.618h4.881v3.894h-5.52l-1.428 8.724h-4.242l1.429-8.724Zm-2.793-3.894h3.432l.938-5.618h-3.432l-.938 5.618Z"/>
</svg>