<svg xmlns="http://www.w3.org/2000/svg" width="240" height="80" fill="none" viewBox="0 0 1249 324">
  <path fill="#4540DB" fill-rule="evenodd" d="M550.914 58.44 427.868 176.96l89.487 86.197-60.405 60.337-91.726-88.353-60.405 60.337V58.441l60.405 58.184L488.27.256l62.64 58.185.004-.002Z" clip-rule="evenodd"/>
  <path fill="#000" fill-rule="evenodd" d="M85.576 213.595h116.331v-112.06l87.252-84.043v277.993H.556l85.02-81.89Z" clip-rule="evenodd"/>
  <path fill="#000" d="M714.463 268.38v14.314c-.484.716-1.253 1.522-2.31 2.417-1.056.877-2.515 1.647-4.377 2.309-1.844.645-4.225.967-7.144.967-2.381 0-4.574-.412-6.579-1.235a14.831 14.831 0 0 1-5.183-3.653c-1.451-1.611-2.578-3.562-3.384-5.854-.788-2.31-1.182-4.924-1.182-7.842v-3.035c0-2.918.34-5.523 1.021-7.814.698-2.292 1.718-4.235 3.061-5.828a12.828 12.828 0 0 1 4.942-3.652c1.951-.842 4.189-1.263 6.714-1.263 2.989 0 5.487.52 7.492 1.558 2.023 1.02 3.599 2.435 4.727 4.243 1.146 1.808 1.88 3.867 2.202 6.177h-5.183c-.233-1.415-.698-2.704-1.397-3.867-.68-1.164-1.656-2.095-2.927-2.793-1.271-.716-2.909-1.075-4.914-1.075-1.809 0-3.375.332-4.7.994a8.655 8.655 0 0 0-3.277 2.847c-.859 1.235-1.503 2.73-1.933 4.485-.412 1.754-.618 3.733-.618 5.935v3.088c0 2.256.26 4.27.779 6.043.537 1.772 1.298 3.285 2.283 4.538.984 1.236 2.157 2.175 3.518 2.82 1.378.645 2.9.967 4.565.967 1.844 0 3.339-.152 4.485-.457 1.146-.322 2.041-.698 2.686-1.128.644-.447 1.136-.868 1.477-1.262v-8.755h-9.051v-4.189h14.207Zm19.9 20.007c-2.023 0-3.858-.34-5.506-1.02a12.488 12.488 0 0 1-4.216-2.928c-1.164-1.253-2.059-2.739-2.685-4.458-.627-1.718-.94-3.598-.94-5.639v-1.128c0-2.364.349-4.467 1.047-6.311.698-1.862 1.647-3.438 2.847-4.727 1.199-1.289 2.56-2.265 4.082-2.927a11.715 11.715 0 0 1 4.726-.994c2.077 0 3.867.358 5.371 1.074 1.522.717 2.766 1.719 3.733 3.008.967 1.271 1.683 2.775 2.149 4.512.465 1.719.698 3.599.698 5.64v2.229H723.97v-4.055h16.731v-.376a12.38 12.38 0 0 0-.806-3.76 6.766 6.766 0 0 0-2.148-3.008c-.985-.788-2.328-1.182-4.029-1.182-1.128 0-2.166.242-3.115.725-.949.466-1.763 1.164-2.444 2.095-.68.931-1.208 2.068-1.584 3.411-.376 1.343-.564 2.891-.564 4.646v1.128c0 1.378.188 2.676.564 3.894.394 1.199.958 2.256 1.692 3.169a8.11 8.11 0 0 0 2.712 2.148c1.074.519 2.292.779 3.652.779 1.755 0 3.241-.358 4.458-1.074 1.218-.716 2.283-1.674 3.196-2.874l3.008 2.39c-.627.949-1.423 1.853-2.39 2.713-.967.859-2.158 1.557-3.572 2.094-1.396.538-3.053.806-4.968.806Zm29.272-29.595v3.814h-15.71v-3.814h15.71Zm-10.393-7.063h4.968v28.924c0 .984.153 1.727.457 2.229.304.501.698.832 1.182.993a4.866 4.866 0 0 0 1.557.242c.412 0 .842-.036 1.289-.107.466-.09.815-.161 1.048-.215l.027 4.055c-.394.125-.914.242-1.558.349-.627.125-1.388.188-2.283.188-1.217 0-2.336-.242-3.357-.725-1.02-.483-1.835-1.289-2.444-2.417-.59-1.146-.886-2.686-.886-4.619v-28.897Zm56.155 13.831v4.216h-21.162v-4.216h21.162Zm-20.356-16.812v39.102h-5.184v-39.102h5.184Zm24.868 0v39.102h-5.157v-39.102h5.157Zm13.857 10.044v29.058h-4.995v-29.058h4.995Zm-5.371-7.707c0-.806.242-1.486.725-2.041.501-.555 1.235-.833 2.202-.833.949 0 1.674.278 2.176.833.519.555.778 1.235.778 2.041 0 .77-.259 1.432-.778 1.987-.502.537-1.227.806-2.176.806-.967 0-1.701-.269-2.202-.806-.483-.555-.725-1.217-.725-1.987Zm18.315 12.273v24.492h-4.968v-29.058h4.834l.134 4.566Zm9.078-4.727-.027 4.619a7.25 7.25 0 0 0-1.182-.161c-.358-.036-.77-.053-1.235-.053-1.146 0-2.158.179-3.035.537a6.286 6.286 0 0 0-2.229 1.504 7.222 7.222 0 0 0-1.45 2.309c-.34.877-.564 1.844-.672 2.901l-1.396.805c0-1.754.17-3.401.51-4.941.358-1.54.904-2.901 1.638-4.082.734-1.2 1.665-2.131 2.793-2.793 1.146-.681 2.507-1.021 4.082-1.021.359 0 .77.045 1.236.135.465.071.788.152.967.241Zm16.113 29.756c-2.023 0-3.858-.34-5.505-1.02a12.482 12.482 0 0 1-4.217-2.928c-1.164-1.253-2.059-2.739-2.685-4.458-.627-1.718-.94-3.598-.94-5.639v-1.128c0-2.364.349-4.467 1.047-6.311.698-1.862 1.647-3.438 2.847-4.727 1.199-1.289 2.56-2.265 4.082-2.927a11.715 11.715 0 0 1 4.726-.994c2.077 0 3.868.358 5.371 1.074 1.522.717 2.767 1.719 3.733 3.008.967 1.271 1.683 2.775 2.149 4.512.465 1.719.698 3.599.698 5.64v2.229h-21.699v-4.055h16.731v-.376a12.38 12.38 0 0 0-.806-3.76 6.758 6.758 0 0 0-2.148-3.008c-.985-.788-2.328-1.182-4.029-1.182-1.128 0-2.166.242-3.115.725-.949.466-1.763 1.164-2.444 2.095-.68.931-1.208 2.068-1.584 3.411-.376 1.343-.564 2.891-.564 4.646v1.128c0 1.378.188 2.676.564 3.894.394 1.199.958 2.256 1.692 3.169a8.11 8.11 0 0 0 2.712 2.148c1.074.519 2.292.779 3.652.779 1.755 0 3.241-.358 4.458-1.074 1.218-.716 2.283-1.674 3.196-2.874l3.008 2.39c-.627.949-1.423 1.853-2.39 2.713-.967.859-2.157 1.557-3.572 2.094-1.396.538-3.052.806-4.968.806Zm35.422-6.177V246.6h4.995v41.25h-4.565l-.43-5.64Zm-19.551-8.567v-.564c0-2.22.269-4.234.806-6.042.555-1.826 1.334-3.393 2.337-4.7 1.02-1.307 2.229-2.309 3.625-3.008 1.414-.716 2.99-1.074 4.727-1.074 1.826 0 3.419.323 4.78.967a9.209 9.209 0 0 1 3.491 2.766c.967 1.2 1.728 2.65 2.283 4.351.555 1.701.94 3.625 1.155 5.774v2.47c-.197 2.131-.582 4.047-1.155 5.747-.555 1.701-1.316 3.152-2.283 4.351a9.549 9.549 0 0 1-3.491 2.766c-1.379.627-2.99.94-4.834.94-1.701 0-3.259-.367-4.673-1.101-1.396-.734-2.605-1.763-3.625-3.088-1.003-1.325-1.782-2.883-2.337-4.673-.537-1.808-.806-3.769-.806-5.882Zm4.996-.564v.564c0 1.451.143 2.811.429 4.082.305 1.272.77 2.391 1.397 3.357a6.926 6.926 0 0 0 2.39 2.283c.967.537 2.121.806 3.464.806 1.647 0 2.999-.349 4.055-1.048a7.805 7.805 0 0 0 2.579-2.766 15.99 15.99 0 0 0 1.503-3.733v-6.472a14.341 14.341 0 0 0-.939-2.846 8.781 8.781 0 0 0-1.558-2.471 6.745 6.745 0 0 0-2.337-1.746c-.913-.429-1.996-.644-3.249-.644-1.361 0-2.533.286-3.518.859a6.844 6.844 0 0 0-2.39 2.31c-.627.966-1.092 2.094-1.397 3.383a18.574 18.574 0 0 0-.429 4.082Zm55.053-24.331v39.102h-5.102v-39.102h5.102Zm12.569 0v4.244h-30.213v-4.244h30.213Zm1.047 24.895v-.617c0-2.095.304-4.037.913-5.828.609-1.808 1.486-3.375 2.632-4.7a11.746 11.746 0 0 1 4.163-3.115c1.629-.752 3.455-1.128 5.478-1.128 2.041 0 3.876.376 5.505 1.128a11.687 11.687 0 0 1 4.19 3.115c1.164 1.325 2.05 2.892 2.659 4.7.608 1.791.913 3.733.913 5.828v.617c0 2.095-.305 4.038-.913 5.828-.609 1.79-1.495 3.357-2.659 4.7a12.175 12.175 0 0 1-4.163 3.115c-1.611.734-3.437 1.101-5.478 1.101s-3.876-.367-5.506-1.101a12.459 12.459 0 0 1-4.189-3.115c-1.146-1.343-2.023-2.91-2.632-4.7s-.913-3.733-.913-5.828Zm4.968-.617v.617c0 1.451.17 2.82.511 4.109.34 1.272.85 2.399 1.53 3.384a7.759 7.759 0 0 0 2.605 2.337c1.039.555 2.247.832 3.626.832 1.36 0 2.551-.277 3.572-.832a7.507 7.507 0 0 0 2.578-2.337c.68-.985 1.19-2.112 1.53-3.384.358-1.289.538-2.658.538-4.109v-.617c0-1.433-.18-2.784-.538-4.055-.34-1.289-.859-2.426-1.557-3.411a7.407 7.407 0 0 0-2.578-2.363c-1.021-.573-2.22-.86-3.599-.86-1.361 0-2.56.287-3.599.86a7.735 7.735 0 0 0-2.578 2.363c-.68.985-1.19 2.122-1.53 3.411a15.588 15.588 0 0 0-.511 4.055Zm46.035 9.184V246.6h4.99v41.25h-4.56l-.43-5.64Zm-19.555-8.567v-.564c0-2.22.268-4.234.805-6.042.555-1.826 1.334-3.393 2.337-4.7 1.02-1.307 2.229-2.309 3.625-3.008 1.415-.716 2.99-1.074 4.727-1.074 1.831 0 3.421.323 4.781.967a9.198 9.198 0 0 1 3.49 2.766c.97 1.2 1.73 2.65 2.28 4.351.56 1.701.94 3.625 1.16 5.774v2.47c-.2 2.131-.58 4.047-1.16 5.747-.55 1.701-1.31 3.152-2.28 4.351a9.537 9.537 0 0 1-3.49 2.766c-1.38.627-2.99.94-4.835.94-1.701 0-3.258-.367-4.673-1.101-1.396-.734-2.605-1.763-3.625-3.088-1.003-1.325-1.782-2.883-2.337-4.673-.537-1.808-.805-3.769-.805-5.882Zm4.995-.564v.564a18.5 18.5 0 0 0 .43 4.082c.304 1.272.769 2.391 1.396 3.357a6.934 6.934 0 0 0 2.39 2.283c.967.537 2.122.806 3.465.806 1.649 0 2.999-.349 4.059-1.048a7.78 7.78 0 0 0 2.57-2.766c.65-1.146 1.15-2.39 1.51-3.733v-6.472c-.22-.984-.53-1.933-.94-2.846a9.017 9.017 0 0 0-1.56-2.471 6.794 6.794 0 0 0-2.34-1.746c-.91-.429-1.99-.644-3.246-.644-1.36 0-2.533.286-3.518.859-.967.555-1.763 1.325-2.39 2.31-.627.966-1.092 2.094-1.396 3.383a18.513 18.513 0 0 0-.43 4.082Zm44.42 9.803v-14.959c0-1.146-.23-2.139-.7-2.981-.45-.859-1.13-1.522-2.04-1.987-.91-.466-2.04-.698-3.38-.698-1.26 0-2.36.215-3.31.644-.93.43-1.66.994-2.2 1.692-.52.698-.78 1.45-.78 2.256h-4.97c0-1.038.27-2.068.81-3.088.54-1.021 1.31-1.943 2.31-2.766 1.02-.842 2.24-1.504 3.65-1.988 1.43-.501 3.03-.752 4.78-.752 2.11 0 3.98.358 5.59 1.074 1.63.717 2.9 1.8 3.81 3.25.93 1.432 1.4 3.232 1.4 5.398v13.535c0 .967.08 1.996.24 3.088.18 1.093.44 2.033.78 2.82v.43h-5.19c-.25-.573-.44-1.334-.59-2.283-.14-.967-.21-1.862-.21-2.685Zm.86-12.649.05 3.491h-5.02c-1.41 0-2.68.116-3.79.349-1.11.215-2.04.546-2.79.994-.75.447-1.32 1.011-1.72 1.692-.39.662-.59 1.441-.59 2.336 0 .913.21 1.746.62 2.498.41.752 1.03 1.351 1.85 1.799.84.43 1.87.645 3.09.645 1.52 0 2.86-.323 4.03-.967 1.16-.645 2.08-1.433 2.76-2.364.7-.931 1.08-1.835 1.13-2.712l2.12 2.39c-.12.752-.46 1.585-1.02 2.498-.55.913-1.29 1.79-2.23 2.632-.91.823-2 1.512-3.27 2.067-1.26.538-2.67.806-4.25.806-1.96 0-3.69-.385-5.18-1.155-1.47-.77-2.61-1.799-3.44-3.088-.8-1.307-1.2-2.766-1.2-4.377 0-1.558.3-2.928.91-4.109a7.894 7.894 0 0 1 2.63-2.981c1.15-.806 2.53-1.415 4.14-1.827 1.61-.411 3.41-.617 5.39-.617h5.78Zm19.66 14.609 8.08-26.05h5.32l-11.66 33.543a18.22 18.22 0 0 1-1.07 2.309c-.43.842-.99 1.639-1.67 2.391a7.89 7.89 0 0 1-2.47 1.826c-.95.483-2.08.725-3.41.725-.39 0-.89-.054-1.5-.161-.61-.108-1.04-.197-1.29-.269l-.03-4.028c.14.018.37.036.67.054.33.035.55.053.67.053 1.13 0 2.09-.152 2.88-.456.79-.287 1.45-.779 1.99-1.477.55-.681 1.02-1.621 1.42-2.82l2.07-5.64Zm-5.94-26.05 7.55 22.559 1.29 5.237-3.57 1.826-10.69-29.622h5.42Zm29.73-10.044-.35 28.064h-4.48l-.38-28.064h5.21Zm-5.37 36.604c0-.805.24-1.486.72-2.041.51-.555 1.24-.832 2.21-.832.95 0 1.67.277 2.17.832.52.555.78 1.236.78 2.041 0 .77-.26 1.433-.78 1.988-.5.555-1.22.832-2.17.832-.97 0-1.7-.277-2.21-.832-.48-.555-.72-1.218-.72-1.988Z"/>
  <path fill="#4540DB" d="M591.881 121.069V220.6h-12.989v-99.531h12.989Zm31.992 0v10.801h-76.904v-10.801h76.904Zm48.672 86.885v-38.077c0-2.916-.593-5.446-1.778-7.588-1.139-2.187-2.871-3.873-5.195-5.058-2.324-1.185-5.195-1.777-8.613-1.777-3.19 0-5.993.546-8.408 1.64-2.37 1.094-4.239 2.529-5.606 4.307-1.322 1.777-1.982 3.691-1.982 5.742h-12.647c0-2.643.684-5.264 2.051-7.861 1.367-2.598 3.327-4.945 5.879-7.041 2.598-2.142 5.696-3.828 9.297-5.059 3.646-1.276 7.702-1.914 12.168-1.914 5.377 0 10.117.911 14.218 2.734 4.148 1.823 7.383 4.58 9.707 8.272 2.37 3.646 3.555 8.226 3.555 13.74v34.453c0 2.461.205 5.082.615 7.862.456 2.779 1.117 5.172 1.983 7.177v1.094h-13.194c-.638-1.458-1.139-3.395-1.503-5.811-.365-2.46-.547-4.739-.547-6.835Zm2.187-32.198.137 8.887h-12.783c-3.601 0-6.813.296-9.639.889-2.825.547-5.195 1.39-7.109 2.529-1.914 1.139-3.373 2.575-4.375 4.307-1.003 1.686-1.504 3.668-1.504 5.947 0 2.324.524 4.443 1.572 6.357 1.048 1.914 2.62 3.441 4.717 4.58 2.142 1.094 4.762 1.641 7.861 1.641 3.874 0 7.292-.82 10.254-2.461 2.962-1.641 5.309-3.646 7.041-6.016 1.777-2.369 2.734-4.671 2.871-6.904l5.401 6.084c-.319 1.914-1.185 4.033-2.598 6.358-1.413 2.324-3.304 4.557-5.674 6.699-2.324 2.096-5.104 3.851-8.34 5.263-3.19 1.368-6.79 2.051-10.801 2.051-5.013 0-9.41-.98-13.193-2.939-3.737-1.96-6.654-4.58-8.75-7.862-2.051-3.326-3.076-7.041-3.076-11.142 0-3.965.775-7.451 2.324-10.459 1.55-3.054 3.783-5.583 6.699-7.588 2.917-2.051 6.426-3.6 10.528-4.648 4.101-1.049 8.681-1.573 13.74-1.573h14.697Zm44.092-60.156v105h-12.715v-105h12.715Zm50.996 106.367c-5.15 0-9.821-.866-14.014-2.597-4.147-1.778-7.724-4.262-10.732-7.452-2.962-3.19-5.241-6.972-6.836-11.347-1.595-4.375-2.393-9.16-2.393-14.356v-2.871c0-6.015.889-11.37 2.666-16.064 1.778-4.74 4.193-8.75 7.247-12.032 3.053-3.281 6.516-5.765 10.39-7.451 3.874-1.686 7.884-2.529 12.031-2.529 5.287 0 9.844.911 13.672 2.734 3.874 1.823 7.041 4.375 9.502 7.657 2.461 3.235 4.284 7.063 5.469 11.484 1.185 4.375 1.777 9.16 1.777 14.355v5.674h-55.234V176.85h42.588v-.957a31.53 31.53 0 0 0-2.051-9.57c-1.139-3.099-2.962-5.651-5.469-7.657-2.506-2.005-5.924-3.007-10.254-3.007-2.871 0-5.514.615-7.929 1.845-2.416 1.185-4.489 2.963-6.221 5.332-1.732 2.37-3.076 5.264-4.033 8.682-.957 3.418-1.436 7.36-1.436 11.826v2.871c0 3.509.479 6.813 1.436 9.912 1.002 3.054 2.438 5.743 4.306 8.067a20.666 20.666 0 0 0 6.905 5.469c2.734 1.321 5.833 1.982 9.297 1.982 4.466 0 8.248-.912 11.347-2.734 3.099-1.823 5.811-4.262 8.135-7.315l7.656 6.084c-1.595 2.415-3.623 4.717-6.084 6.904-2.461 2.188-5.491 3.965-9.091 5.332-3.555 1.368-7.771 2.051-12.647 2.051Zm56.191-59.541V220.6h-12.646v-73.965h11.963l.683 15.791Zm-3.007 18.389-5.264-.205c.046-5.059.798-9.73 2.256-14.014 1.458-4.329 3.509-8.089 6.152-11.279 2.643-3.19 5.788-5.651 9.434-7.383 3.691-1.777 7.77-2.666 12.236-2.666 3.646 0 6.927.501 9.844 1.504 2.917.957 5.4 2.506 7.451 4.648 2.096 2.142 3.691 4.922 4.785 8.34 1.094 3.373 1.641 7.497 1.641 12.373V220.6h-12.715v-48.604c0-3.873-.57-6.972-1.709-9.296-1.139-2.37-2.803-4.079-4.99-5.127-2.188-1.094-4.877-1.641-8.067-1.641-3.144 0-6.015.661-8.613 1.982-2.552 1.322-4.762 3.145-6.631 5.469-1.823 2.324-3.258 4.99-4.306 7.998-1.003 2.962-1.504 6.107-1.504 9.434Zm98.711-34.18v9.707h-39.991v-9.707h39.991Zm-26.455-17.978h12.646v73.623c0 2.506.387 4.397 1.162 5.674.775 1.276 1.777 2.119 3.008 2.529 1.23.41 2.552.615 3.965.615 1.048 0 2.142-.091 3.281-.273a82.636 82.636 0 0 0 2.666-.547l.068 10.322c-1.002.319-2.324.615-3.964.889-1.595.319-3.532.478-5.811.478-3.099 0-5.947-.615-8.545-1.846-2.598-1.23-4.671-3.281-6.221-6.152-1.504-2.917-2.255-6.836-2.255-11.758v-73.554Z"/>
  <path fill="#000" d="m970.592 205.493 29.326-84.424h14.282L977.359 220.6h-10.185l3.418-15.107Zm-27.413-84.424 29.053 84.424 3.623 15.107H965.67l-36.778-99.531h14.287Zm122.981 86.885v-38.077c0-2.916-.59-5.446-1.78-7.588-1.14-2.187-2.87-3.873-5.19-5.058-2.33-1.185-5.2-1.777-8.62-1.777-3.19 0-5.99.546-8.41 1.64-2.37 1.094-4.23 2.529-5.6 4.307-1.32 1.777-1.98 3.691-1.98 5.742h-12.65c0-2.643.68-5.264 2.05-7.861 1.37-2.598 3.33-4.945 5.88-7.041 2.6-2.142 5.7-3.828 9.3-5.059 3.64-1.276 7.7-1.914 12.16-1.914 5.38 0 10.12.911 14.22 2.734 4.15 1.823 7.39 4.58 9.71 8.272 2.37 3.646 3.55 8.226 3.55 13.74v34.453c0 2.461.21 5.082.62 7.862.46 2.779 1.12 5.172 1.98 7.177v1.094h-13.19c-.64-1.458-1.14-3.395-1.51-5.811-.36-2.46-.54-4.739-.54-6.835Zm2.19-32.198.13 8.887h-12.78c-3.6 0-6.81.296-9.64.889-2.83.547-5.2 1.39-7.11 2.529-1.91 1.139-3.37 2.575-4.37 4.307-1.01 1.686-1.51 3.668-1.51 5.947 0 2.324.53 4.443 1.57 6.357 1.05 1.914 2.62 3.441 4.72 4.58 2.14 1.094 4.76 1.641 7.86 1.641 3.88 0 7.29-.82 10.26-2.461 2.96-1.641 5.31-3.646 7.04-6.016 1.77-2.369 2.73-4.671 2.87-6.904l5.4 6.084c-.32 1.914-1.19 4.033-2.6 6.358-1.41 2.324-3.3 4.557-5.67 6.699-2.33 2.096-5.11 3.851-8.34 5.263-3.19 1.368-6.79 2.051-10.8 2.051-5.02 0-9.41-.98-13.2-2.939-3.73-1.96-6.65-4.58-8.75-7.862-2.05-3.326-3.07-7.041-3.07-11.142 0-3.965.77-7.451 2.32-10.459 1.55-3.054 3.78-5.583 6.7-7.588 2.92-2.051 6.43-3.6 10.53-4.648 4.1-1.049 8.68-1.573 13.74-1.573h14.7Zm75.6 27.754v-56.875h12.72V220.6h-12.1l-.62-17.09Zm2.39-15.586 5.27-.136c0 4.921-.53 9.479-1.58 13.671-1 4.148-2.64 7.748-4.92 10.801-2.28 3.054-5.26 5.446-8.95 7.178-3.69 1.686-8.18 2.529-13.47 2.529-3.6 0-6.9-.524-9.91-1.572-2.96-1.048-5.52-2.666-7.66-4.854-2.14-2.187-3.8-5.035-4.99-8.545-1.14-3.509-1.71-7.724-1.71-12.646v-47.715h12.65v47.852c0 3.327.36 6.084 1.09 8.271.78 2.142 1.8 3.851 3.08 5.127 1.32 1.231 2.78 2.097 4.37 2.598 1.65.501 3.33.752 5.06.752 5.38 0 9.64-1.026 12.79-3.076 3.14-2.097 5.4-4.899 6.76-8.409 1.42-3.554 2.12-7.496 2.12-11.826Zm43.34-72.324v105h-12.71v-105h12.71Zm51.27 31.035v9.707h-39.99v-9.707h39.99Zm-26.45-17.978h12.64v73.623c0 2.506.39 4.397 1.17 5.674.77 1.276 1.77 2.119 3 2.529 1.23.41 2.56.615 3.97.615 1.05 0 2.14-.091 3.28-.273 1.19-.228 2.07-.411 2.67-.547l.06 10.322c-1 .319-2.32.615-3.96.889-1.6.319-3.53.478-5.81.478-3.1 0-5.95-.615-8.55-1.846-2.59-1.23-4.67-3.281-6.22-6.152-1.5-2.917-2.25-6.836-2.25-11.758v-73.554Z"/>
</svg>